<?xml version="1.0" standalone="no"?>
<!DOCTYPE svg PUBLIC "-//W3C//DTD SVG 20010904//EN"
 "http://www.w3.org/TR/2001/REC-SVG-20010904/DTD/svg10.dtd">
<svg version="1.0" xmlns="http://www.w3.org/2000/svg"
 width="259.000000pt" height="194.000000pt" viewBox="0 0 259.000000 194.000000"
 preserveAspectRatio="xMidYMid meet">
<metadata>
Created by potrace 1.16, written by Peter Selinger 2001-2019
</metadata>
<g transform="translate(0.000000,194.000000) scale(0.100000,-0.100000)"
fill="#000000" stroke="none">
<path d="M1292 1754 c-6 -10 -23 -17 -43 -18 -36 -1 -40 -12 -24 -63 6 -19 3
-23 -13 -23 -37 0 -80 -52 -87 -106 -4 -27 -11 -53 -15 -59 -4 -5 -8 -37 -9
-69 0 -33 -5 -64 -11 -70 -5 -5 -10 -28 -10 -50 0 -30 3 -37 10 -26 11 17 13
1 4 -25 -5 -13 -8 -14 -15 -3 -8 13 -14 -32 -10 -74 1 -10 -3 -18 -10 -18 -8
0 -5 -8 6 -20 20 -22 14 -26 -14 -8 -22 13 -55 4 -49 -15 3 -6 24 -25 47 -42
l43 -30 215 -2 c227 -2 240 0 308 50 16 13 17 17 6 31 -9 11 -21 14 -35 10
-18 -6 -19 -5 -8 9 11 13 10 16 -8 22 -16 5 -19 11 -14 23 18 37 7 101 -27
159 -30 53 -33 66 -34 148 -2 105 -16 135 -77 166 -21 11 -36 24 -32 30 13 21
-6 56 -41 72 -44 21 -42 21 -53 1z m37 -226 c94 3 101 -1 101 -60 0 -39 -15
-57 -33 -39 -15 15 -67 14 -73 -3 -5 -14 -54 -10 -54 5 0 13 -54 11 -68 -3
-17 -17 -25 -3 -24 43 2 52 17 72 46 62 12 -5 59 -7 105 -5z m-169 -94 c0 -8
7 -17 15 -20 8 -4 15 -14 15 -24 0 -32 26 -50 59 -40 17 5 33 4 38 -1 6 -6 8
2 5 21 -5 34 13 41 23 9 16 -48 95 -43 95 6 0 23 10 30 33 26 5 -1 6 3 3 8 -3
5 1 14 9 21 13 11 15 7 15 -24 0 -28 -4 -36 -18 -36 -11 0 -24 -12 -31 -26 -6
-14 -30 -48 -54 -76 -39 -47 -44 -50 -80 -45 -34 5 -37 4 -20 -9 10 -7 32 -14
49 -14 32 0 44 -14 44 -48 0 -45 -80 -71 -114 -36 -18 17 -21 85 -7 113 8 14
1 28 -30 65 -21 27 -39 57 -39 67 0 10 -7 19 -15 19 -11 0 -15 11 -15 36 0 21
4 33 10 29 6 -3 10 -13 10 -21z"/>
<path d="M1908 1667 c-76 -23 -138 -44 -138 -47 0 -4 15 -12 34 -18 26 -10 38
-22 46 -47 10 -31 13 -33 36 -23 19 9 28 8 44 -7 11 -10 22 -16 24 -14 11 13
102 199 97 198 -3 0 -68 -19 -143 -42z"/>
<path d="M966 1084 c-9 -23 -1 -31 42 -45 49 -15 64 -28 57 -49 -4 -14 2 -19
32 -23 150 -24 423 -18 423 8 0 8 27 21 63 32 55 16 62 22 65 46 2 15 1 27 -2
27 -3 0 -29 -15 -59 -33 l-54 -32 -164 -3 c-217 -4 -282 6 -347 52 -42 30 -51
34 -56 20z"/>
<path d="M1060 930 c0 -26 3 -29 66 -39 36 -7 139 -11 230 -11 l164 2 6 25 c4
13 3 28 -2 32 -5 5 -43 4 -84 -1 -75 -9 -238 -3 -331 11 -49 8 -49 8 -49 -19z"/>
<path d="M1060 853 l0 -29 103 -12 c56 -7 156 -13 222 -13 l120 -2 -85 -9
c-78 -8 -256 1 -332 18 -23 5 -26 3 -21 -15 5 -21 10 -21 224 -21 207 0 219 1
219 19 0 10 3 31 6 47 l6 29 -174 0 c-95 0 -199 4 -230 8 l-58 8 0 -28z"/>
<path d="M1738 633 c-24 -4 -28 -9 -28 -38 0 -38 -18 -52 -97 -75 -24 -7 -43
-18 -43 -23 0 -6 -9 -2 -20 8 -11 10 -20 13 -20 7 0 -15 -500 -22 -501 -7 0 6
-4 1 -8 -10 -7 -16 -10 -11 -16 26 l-7 47 -53 7 c-61 7 -149 -2 -186 -21 -14
-7 -34 -24 -43 -38 -22 -34 -31 -107 -17 -135 14 -25 91 -65 143 -75 47 -8 54
-20 33 -52 -16 -24 -15 -25 22 -42 30 -13 67 -17 170 -17 75 0 129 -4 126 -9
-4 -5 -1 -6 5 -2 6 3 97 9 202 11 106 3 196 7 201 10 5 3 37 8 71 11 74 6 168
31 168 44 0 5 -5 12 -11 16 -6 3 -9 24 -7 45 3 37 1 40 -27 48 l-30 8 30 14
c59 26 113 69 119 94 10 40 -11 101 -45 129 -30 26 -59 30 -131 19z"/>
<path d="M2007 623 c-4 -3 -7 -84 -7 -180 l0 -173 65 0 65 0 0 180 0 180 -58
0 c-32 0 -62 -3 -65 -7z"/>
</g>
</svg>
