<svg version="1.1" id="Layer_1" xmlns="http://www.w3.org/2000/svg" xmlns:xlink="http://www.w3.org/1999/xlink" x="0px" y="0px"
	 width="100%" viewBox="0 0 216 233" enable-background="new 0 0 216 233" xml:space="preserve">
<path fill="#FEFDFD" opacity="1.000000" stroke="none" 
	d="
M1.000000,216.000000 
	C1.000000,144.381897 1.000000,72.763786 1.000000,1.072840 
	C72.902588,1.072840 144.805283,1.072840 217.000000,1.072840 
	C217.000000,72.353966 217.000000,143.708328 216.803329,215.602722 
	C216.352646,216.278519 216.157486,216.473236 215.558655,216.815460 
	C145.216125,216.909195 75.336098,216.915359 5.456071,216.911606 
	C4.297033,216.911545 3.138000,216.791183 1.854571,216.558777 
	C1.524272,216.190308 1.280879,216.060120 1.000000,216.000000 
M66.893463,57.739040 
	C66.893463,57.739040 66.516960,57.513176 65.978668,57.681808 
	C66.156509,57.618610 66.334351,57.555416 66.333687,56.834869 
	C64.218407,54.839828 62.103127,52.844788 59.833038,50.559086 
	C59.535992,50.317524 59.268780,50.363045 58.313759,50.823448 
	C58.071865,50.846390 57.829975,50.869331 57.656242,50.943798 
	C57.656242,50.943798 57.737488,50.917355 56.784153,50.720730 
	C55.177040,50.700970 53.569927,50.681213 51.745121,50.430344 
	C51.405140,50.313034 51.162582,50.434723 50.421776,51.098507 
	C49.036694,51.768768 47.651611,52.439030 45.463818,53.037483 
	C39.092426,50.315186 33.474670,45.798698 25.982452,44.290821 
	C23.009018,40.818241 19.177111,40.765083 16.542618,43.764160 
	C13.416829,47.322521 11.433637,51.884579 8.212818,56.134239 
	C6.183722,59.307041 5.502019,62.040245 10.524945,63.687275 
	C11.679470,64.376953 12.833996,65.066628 14.893806,66.021278 
	C23.948153,65.960068 33.002499,65.898865 42.282799,66.305359 
	C42.539322,66.536110 42.795845,66.766861 43.148098,67.767601 
	C42.059032,70.183487 40.969967,72.599365 39.396908,75.469345 
	C39.273743,76.336670 39.150578,77.203987 39.073322,78.870636 
	C38.944691,79.925217 38.816055,80.979805 38.444336,82.210739 
	C38.267876,82.504677 38.330917,82.753151 38.789642,83.814621 
	C38.744484,85.556343 38.699326,87.298058 38.423771,89.245155 
	C38.291767,89.569405 38.395557,89.812447 38.943527,90.480164 
	C39.006100,90.651466 39.068676,90.822777 38.987675,91.752182 
	C39.399193,93.382530 39.810715,95.012878 39.479717,97.103233 
	C38.145592,101.435188 40.943901,104.291580 42.348431,107.955856 
	C45.508945,116.201317 51.188202,120.866859 58.019993,125.838448 
	C58.066013,127.191032 58.112030,128.543610 58.051895,130.655777 
	C56.387890,132.047546 54.723885,133.439316 52.351364,135.069077 
	C48.563694,136.634766 44.776028,138.200455 40.262459,139.892136 
	C35.262917,141.586075 32.819893,145.045990 32.929066,150.349380 
	C33.000751,153.831650 32.959179,157.316238 32.896736,161.743362 
	C32.835442,165.484680 32.774151,169.225983 31.932968,172.982666 
	C28.343542,174.140823 24.559284,174.909195 21.224174,176.576172 
	C18.375668,177.999939 18.071222,180.534775 21.391491,182.126083 
	C24.360313,183.548965 27.430775,185.276367 30.604893,185.669022 
	C48.835220,187.924271 67.065872,190.776672 85.379547,191.618637 
	C113.246078,192.899841 141.195877,192.496338 168.921677,188.793854 
	C177.876755,187.598007 186.649521,184.949677 195.441727,182.714203 
	C196.785614,182.372528 198.885483,180.399139 198.704315,179.643433 
	C198.350388,178.167053 196.869049,176.471008 195.429245,175.846954 
	C192.438202,174.550491 189.169632,173.894318 185.599243,172.451706 
	C180.704742,165.252686 175.810242,158.053680 171.061401,149.945740 
	C171.061401,131.052643 171.061401,112.159554 171.061401,92.638474 
	C143.057083,92.638474 115.511101,92.638474 87.715675,92.338692 
	C87.515862,92.162392 87.285645,92.046478 86.786583,92.174797 
	C86.786583,92.174797 86.499504,92.084015 86.794777,91.187370 
	C86.846588,86.838127 86.898407,82.488892 86.979469,77.469040 
	C86.728287,76.655388 86.477104,75.841736 86.000343,74.463097 
	C85.924179,74.064941 85.848007,73.666779 86.332191,72.581291 
	C88.119408,72.375862 89.905800,72.001160 91.693962,71.992577 
	C103.006760,71.938232 114.326691,71.738869 125.629707,72.075745 
	C130.178528,72.211311 131.212570,70.710648 131.119431,66.418800 
	C130.841568,53.614594 131.004654,40.800819 131.075531,27.131227 
	C130.637695,26.186182 130.199844,25.241137 129.196075,24.023643 
	C127.543839,24.144495 125.891594,24.265347 123.286453,24.540268 
	C111.671654,24.561277 100.056763,24.611626 88.442108,24.579824 
	C85.965279,24.573044 83.989342,24.772535 84.593605,28.814243 
	C84.420143,30.612547 84.106239,32.410053 84.096039,34.209282 
	C84.030304,45.806873 84.030968,57.404842 83.467773,68.604187 
	C80.341942,63.443260 75.560036,60.557861 69.566368,58.359875 
	C68.805084,58.220764 68.043800,58.081650 66.893463,57.739040 
M191.517090,65.230522 
	C192.009171,64.827072 192.501266,64.423615 193.001114,64.001373 
	C193.001114,64.001373 193.021530,64.000870 193.589615,64.216423 
	C194.727417,62.777939 195.865219,61.339455 197.004333,59.501728 
	C197.004333,59.501728 197.017212,59.102703 197.537796,58.641964 
	C196.285736,56.421982 195.033661,54.202000 193.223267,51.950348 
	C193.038971,51.922394 192.854675,51.894440 192.528473,51.397987 
	C192.061096,51.085361 191.593704,50.772739 190.816422,49.780064 
	C189.539810,49.867832 188.263199,49.955601 186.271393,50.077869 
	C182.221359,51.721153 179.811569,54.817039 180.975754,59.017513 
	C181.613754,61.319489 184.303162,63.052906 186.002441,64.974800 
	C186.002441,64.974800 185.933746,64.910545 186.120544,65.238144 
	C186.320404,65.402328 186.548340,65.502968 187.174667,66.197945 
	C188.452347,65.800011 189.730011,65.402084 190.999847,65.000000 
	C190.999847,65.000000 191.003754,65.009438 191.517090,65.230522 
M14.397914,92.569916 
	C14.581836,92.517776 14.765759,92.465637 15.637326,92.810463 
	C16.424414,92.894318 17.211502,92.978172 18.119566,93.719566 
	C19.994177,94.550316 21.568502,97.567528 24.730637,94.580093 
	C26.084345,94.379715 27.438053,94.179337 29.813099,93.827782 
	C28.429213,92.377075 27.562851,91.468880 26.799311,90.214142 
	C26.530954,89.915367 26.262598,89.616600 25.994244,89.317825 
	C25.659922,90.075043 25.325602,90.832268 24.479235,91.653954 
	C24.308668,91.631561 24.138103,91.609177 23.818903,90.984184 
	C22.199776,90.591545 20.580650,90.198906 18.050562,89.967972 
	C17.146582,90.166451 16.242601,90.364929 14.876260,90.694115 
	C13.232209,91.129158 11.588158,91.564201 9.322328,91.940857 
	C7.849429,91.761642 6.376531,91.582428 4.903633,91.403214 
	C4.821579,91.938797 4.739526,92.474373 4.657472,93.009956 
	C6.010137,93.330162 7.362802,93.650375 9.003853,94.574921 
	C10.020926,94.699089 11.038000,94.823257 13.217402,94.691269 
	C13.786359,94.358070 14.355316,94.024864 14.857830,93.377411 
	C14.754706,93.135353 14.578351,93.055962 14.397914,92.569916 
M200.198929,137.105087 
	C199.963318,137.531433 199.727707,137.957779 199.492096,138.384125 
	C199.971756,138.322220 200.451431,138.260330 201.720734,138.091660 
	C202.540268,136.404968 203.359818,134.718262 204.876450,133.186874 
	C205.251221,135.244720 205.626007,137.302582 206.000778,139.360428 
	C206.667511,130.264496 206.683243,121.112946 206.586670,111.962585 
	C206.583954,111.704781 205.382477,111.459625 205.552673,111.526131 
	C205.015503,115.020226 204.520874,118.237579 203.486298,122.096504 
	C203.321609,123.731941 203.156921,125.367378 202.471054,127.413422 
	C202.313431,128.272324 202.155807,129.131241 201.674606,130.713089 
	C201.350159,132.816666 201.025711,134.920258 200.198929,137.105087 
M185.296127,45.881714 
	C178.216537,41.221382 179.052353,50.703705 174.593185,50.756615 
	C175.942719,53.110985 176.796097,54.599773 177.213806,55.328522 
	C178.739868,52.995026 180.028366,50.552517 181.787430,48.516582 
	C182.801880,47.342468 184.576614,46.825283 186.565323,46.234833 
	C187.934189,46.166313 189.303070,46.097794 191.080429,46.760696 
	C195.442352,45.345440 196.750183,49.908550 199.499634,51.492317 
	C201.050171,52.385475 202.269745,57.272446 201.313446,58.415863 
	C199.032578,61.143009 200.702637,62.831432 201.425964,64.961464 
	C201.463120,65.070862 201.279037,65.243713 201.232635,65.397484 
	C201.203781,65.493065 201.240250,65.608360 201.200684,65.019440 
	C201.310928,61.624767 204.678696,58.323650 202.356232,53.318024 
	C200.479370,49.272793 196.977798,44.393024 191.903992,44.104729 
	C188.479156,40.762413 187.370499,41.116104 185.296127,45.881714 
M191.989975,121.883614 
	C192.902023,125.458542 193.814056,129.033478 195.010696,133.723953 
	C198.011932,129.511856 197.464294,126.877174 194.436310,125.036621 
	C195.425735,122.827957 196.276825,120.928101 197.011429,119.288261 
	C195.039841,119.954689 193.533813,120.463745 192.111404,120.183327 
	C194.024612,113.494873 193.295410,111.470383 189.206192,111.317650 
	C189.206192,116.978363 189.206192,122.672974 189.206192,128.367584 
	C189.690826,128.383133 190.175476,128.398682 190.660110,128.414230 
	C190.660110,126.737396 190.520630,125.043823 190.718994,123.390793 
	C190.818100,122.564926 191.534454,121.813126 191.989975,121.883614 
M67.298363,31.555576 
	C61.843361,31.206127 56.390259,30.814062 50.930511,30.571270 
	C50.366856,30.546206 49.763634,31.410757 48.523609,31.875908 
	C47.340496,31.682659 46.157387,31.489412 44.974274,31.296162 
	C46.134037,32.599216 47.293800,33.902271 49.138599,35.975002 
	C49.138599,33.655239 49.138599,32.736462 49.931358,31.901276 
	C51.777012,34.969627 56.363091,36.498192 58.232712,33.937923 
	C61.094368,30.019165 62.727749,32.547325 64.627350,34.245438 
	C65.591545,33.380260 66.364304,32.686859 66.981003,32.623497 
	C67.305000,33.071346 67.629005,33.519192 67.953003,33.967041 
	C67.874199,33.340576 67.795395,32.714108 67.298363,31.555576 
M178.679474,64.420891 
	C178.366714,64.293060 178.053970,64.165230 177.815521,63.221458 
	C177.033691,60.723347 176.251877,58.225235 175.470047,55.727127 
	C174.917542,55.888271 174.365036,56.049419 173.812531,56.210564 
	C174.564392,59.507133 175.266571,62.816822 176.129364,66.084099 
	C176.240448,66.504791 177.212921,66.663589 177.735718,67.018349 
	C178.459122,67.509247 179.349365,67.934074 179.791000,68.627426 
	C181.237808,70.898911 188.011429,73.144875 190.418503,72.248650 
	C192.029739,71.648750 193.816345,71.519875 196.205734,71.102592 
	C197.126053,69.445435 198.046387,67.788277 198.966705,66.131111 
	C198.485123,65.868324 198.003540,65.605530 197.521957,65.342743 
	C196.339508,66.587067 195.157059,67.831390 193.228409,68.872879 
	C191.620621,69.505157 190.012817,70.137436 187.918915,70.960884 
	C185.161560,69.062737 182.082596,66.943207 178.679474,64.420891 
M165.886795,29.988184 
	C162.197357,29.988184 158.507904,29.988184 154.818466,29.988184 
	C156.815002,32.275009 158.888657,34.120262 161.039368,34.214931 
	C163.246002,34.312065 165.562454,32.772713 167.748444,31.769943 
	C168.195358,31.564932 168.276550,30.562698 168.526337,29.927958 
	C167.900711,29.931347 167.275085,29.934734 165.886795,29.988184 
M149.267120,70.397766 
	C155.030685,71.458305 156.539688,70.648651 156.384399,67.094467 
	C153.717163,66.516479 151.202591,65.971573 148.039780,65.286186 
	C148.283661,67.005783 148.497360,68.512627 149.267120,70.397766 
M190.688950,130.133713 
	C189.875671,130.546997 189.062393,130.960297 187.480270,131.764297 
	C192.827835,133.910400 190.987381,136.251190 188.448532,139.229889 
	C190.379517,139.149292 192.689560,138.441940 192.694962,137.717392 
	C192.713303,135.256744 191.917419,132.790039 190.688950,130.133713 
M197.337845,89.889603 
	C199.987976,91.465820 202.638107,93.042038 205.345154,94.652100 
	C206.238647,93.030685 206.902039,91.826866 207.691971,90.393425 
	C204.118210,90.030060 201.014801,89.714523 197.337845,89.889603 
M202.991364,113.954262 
	C202.266617,112.879471 201.541885,111.804680 200.847641,110.775131 
	C199.978424,114.932823 199.197281,118.669281 198.416122,122.405746 
	C198.913345,122.579102 199.410553,122.752457 199.907776,122.925812 
	C200.943848,120.185234 201.979904,117.444664 202.991364,113.954262 
M190.241287,90.894028 
	C191.446121,92.792427 192.650970,94.690819 193.855804,96.589218 
	C194.247955,96.378738 194.640091,96.168266 195.032242,95.957794 
	C195.336288,94.140938 195.640335,92.324089 196.003937,90.151382 
	C193.767868,90.475876 192.291626,90.690102 190.241287,90.894028 
M144.073730,68.647614 
	C144.419876,69.234032 144.766022,69.820450 145.112183,70.406876 
	C145.380142,69.902916 145.648117,69.398956 145.916092,68.894997 
	C145.352249,68.595787 144.788406,68.296577 144.073730,68.647614 
M141.142548,68.490814 
	C141.569809,68.793983 141.997086,69.097153 142.424347,69.400322 
	C142.537949,68.951950 142.651550,68.503571 142.765152,68.055199 
	C142.265198,68.001396 141.765259,67.947594 141.142548,68.490814 
M151.704453,31.566540 
	C151.989304,31.294699 152.274155,31.022858 152.559021,30.751024 
	C152.446304,30.633131 152.241821,30.406549 152.234146,30.413025 
	C151.933716,30.666737 151.651199,30.941668 151.704453,31.566540 
M70.469444,30.613306 
	C70.181496,30.880407 69.893555,31.147507 69.605614,31.414610 
	C69.708504,31.516716 69.891129,31.716127 69.902626,31.706705 
	C70.193001,31.468761 70.465401,31.208889 70.469444,30.613306 
M172.351227,31.666445 
	C172.469513,31.420370 172.587799,31.174295 172.706085,30.928221 
	C172.469955,30.856585 172.233810,30.784946 171.997681,30.713308 
	C171.972061,31.052198 171.946442,31.391088 172.351227,31.666445 
M159.311890,68.045349 
	C159.075394,67.902794 158.838882,67.760239 158.602386,67.617676 
	C158.514923,67.861282 158.427475,68.104889 158.340027,68.348495 
	C158.690811,68.389275 159.041595,68.430054 159.311890,68.045349 
M196.727158,138.941940 
	C196.385437,138.966110 196.043716,138.990295 195.701996,139.014465 
	C195.773697,139.254532 195.845383,139.494583 195.917084,139.734650 
	C196.166214,139.615707 196.415359,139.496750 196.727158,138.941940 
M30.700293,90.826462 
	C30.521955,90.888054 30.343618,90.949646 30.165285,91.011230 
	C30.341381,91.070137 30.517477,91.129051 30.700293,90.826462 
z"/>
<path fill="#121325" opacity="1.000000" stroke="none" 
	d="
M217.000000,218.000000 
	C217.000000,223.323807 217.000000,228.647598 217.000000,233.964600 
	C144.999985,233.957794 72.999985,233.957794 1.000000,233.957794 
	C1.000000,228.924515 1.000000,223.933456 1.468657,218.471909 
	C73.624878,218.000946 145.312439,218.000473 217.000000,218.000000 
M35.737896,228.042480 
	C35.960884,227.695847 36.183868,227.349197 36.537075,226.995132 
	C36.537075,226.995132 36.667465,226.991760 36.672310,227.807861 
	C38.989559,226.674774 41.306805,225.541687 43.615162,224.419891 
	C41.513386,224.652405 39.411610,224.884933 36.724201,225.045715 
	C36.528194,225.030777 36.332191,225.015854 35.902351,224.607468 
	C35.749809,224.301239 35.502483,224.146713 34.725769,223.968231 
	C34.725769,223.968231 34.272301,223.849426 33.880733,223.287262 
	C33.235222,223.257324 32.589710,223.227371 31.195679,222.980316 
	C30.177860,223.001816 29.160042,223.023331 27.444935,223.015182 
	C26.635771,223.332825 25.826609,223.650482 24.254734,223.976486 
	C23.492229,223.969254 22.729723,223.962006 21.868286,223.687805 
	C21.785089,223.639893 21.701893,223.591965 21.618696,223.544037 
	C21.729204,223.683914 21.839712,223.823807 21.489334,224.666061 
	C21.314941,224.885147 21.140549,225.104248 20.992735,225.354004 
	C20.992735,225.354004 20.956469,225.391357 20.489613,225.169174 
	C20.324928,225.118378 20.160244,225.067566 19.213339,225.003296 
	C18.431076,225.006363 17.648811,225.009415 16.561888,224.463791 
	C15.370189,224.643433 14.178490,224.823090 12.500723,224.644653 
	C12.143060,224.015701 11.785397,223.386749 11.017838,222.036987 
	C10.520652,224.512131 10.180222,226.206909 9.574498,229.222382 
	C12.116951,228.184143 13.672483,227.548935 15.541567,226.906036 
	C15.541567,226.906036 15.843898,226.808929 16.229776,227.338272 
	C17.158209,227.902649 18.086641,228.467026 19.543482,229.217636 
	C21.020226,228.835403 22.496971,228.453171 24.692341,228.117249 
	C25.453278,227.410660 26.214214,226.704071 27.502642,226.227386 
	C28.665642,228.603333 29.650032,231.431046 33.652000,228.464203 
	C33.861881,228.362656 34.071766,228.261124 34.655849,228.096100 
	C34.655849,228.096100 35.019810,227.984955 35.737896,228.042480 
M43.356663,228.411194 
	C43.356663,228.411194 43.512146,228.503540 43.512146,228.503540 
	C43.512146,228.503540 43.488235,228.297546 43.356663,228.411194 
M45.551693,228.606979 
	C45.551693,228.606979 45.682629,228.404053 45.682629,228.404053 
	C45.682629,228.404053 45.418888,228.423248 45.551693,228.606979 
z"/>
<path fill="#000000" opacity="1.000000" stroke="none" 
	d="
M217.000000,217.750000 
	C145.312439,218.000473 73.624878,218.000946 1.468657,218.000702 
	C1.000000,218.000000 1.000000,217.500000 1.251384,217.205566 
	C1.661500,216.849716 1.820233,216.788330 1.978965,216.726959 
	C3.138000,216.791183 4.297033,216.911545 5.456071,216.911606 
	C75.336098,216.915359 145.216125,216.909195 215.796722,216.907547 
	C216.664856,216.940735 216.832428,216.970367 217.000000,217.000000 
	C217.000000,217.000000 217.000000,217.500000 217.000000,217.750000 
z"/>
<path fill="#FDFDFD" opacity="1.000000" stroke="none" 
	d="
M1.854571,216.558777 
	C1.820233,216.788330 1.661500,216.849716 1.251384,216.955566 
	C1.000000,217.000000 1.000000,216.500000 1.000000,216.250000 
	C1.280879,216.060120 1.524272,216.190308 1.854571,216.558777 
z"/>
<path fill="#FDFDFD" opacity="1.000000" stroke="none" 
	d="
M217.000000,216.750000 
	C216.832428,216.970367 216.664856,216.940735 216.259232,216.819031 
	C216.157486,216.473236 216.352646,216.278519 216.803329,216.071381 
	C217.000000,216.000000 217.000000,216.500000 217.000000,216.750000 
z"/>
<path fill="#ACBFCA" opacity="1.000000" stroke="none" 
	d="
M186.015137,172.974960 
	C189.169632,173.894318 192.438202,174.550491 195.429245,175.846954 
	C196.869049,176.471008 198.350388,178.167053 198.704315,179.643433 
	C198.885483,180.399139 196.785614,182.372528 195.441727,182.714203 
	C186.649521,184.949677 177.876755,187.598007 168.921677,188.793854 
	C141.195877,192.496338 113.246078,192.899841 85.379547,191.618637 
	C67.065872,190.776672 48.835220,187.924271 30.604893,185.669022 
	C27.430775,185.276367 24.360313,183.548965 21.391491,182.126083 
	C18.071222,180.534775 18.375668,177.999939 21.224174,176.576172 
	C24.559284,174.909195 28.343542,174.140823 32.394882,173.408920 
	C32.999607,175.402679 33.142410,176.970184 33.289799,178.587982 
	C36.695728,178.587982 39.580566,178.587982 42.094242,178.587982 
	C43.194435,175.098633 44.168064,172.010681 45.461109,169.139343 
	C46.428421,172.214142 47.076317,175.072342 47.806957,178.295563 
	C58.000641,178.295563 68.302444,178.428024 78.593124,178.149429 
	C80.096130,178.108734 81.546074,176.108276 83.065887,175.378662 
	C86.317177,180.576889 90.727989,179.160187 95.532333,178.161926 
	C106.647995,178.309128 117.311119,178.364319 127.974289,178.374237 
	C145.804077,178.390823 163.633911,178.374054 181.463715,178.383331 
	C184.015030,178.384659 186.594971,178.478577 184.887726,174.309509 
	C185.347305,173.641754 185.681229,173.308365 186.015137,172.974960 
z"/>
<path fill="#B93B45" opacity="1.000000" stroke="none" 
	d="
M83.020576,175.014648 
	C81.546074,176.108276 80.096130,178.108734 78.593124,178.149429 
	C68.302444,178.428024 58.000641,178.295563 47.806957,178.295563 
	C47.076317,175.072342 46.428421,172.214142 45.408077,168.736237 
	C44.437408,165.388062 43.839188,162.659607 43.164223,159.469147 
	C43.048435,156.544510 43.219334,154.056290 42.922764,151.625092 
	C42.438171,147.652573 41.649025,143.717178 40.988358,139.766129 
	C44.776028,138.200455 48.563694,136.634766 53.012089,135.115204 
	C59.809029,142.461548 69.341522,142.178909 73.356628,134.632034 
	C77.534027,136.101730 81.316910,137.528793 85.084717,139.381195 
	C84.900360,146.527374 84.731071,153.248230 84.379211,160.288269 
	C83.908600,162.178757 83.468056,163.740097 83.364510,165.323471 
	C83.153656,168.547577 83.124565,171.783554 83.020576,175.014648 
z"/>
<path fill="#C2DAE7" opacity="1.000000" stroke="none" 
	d="
M130.995483,27.990786 
	C131.004654,40.800819 130.841568,53.614594 131.119431,66.418800 
	C131.212570,70.710648 130.178528,72.211311 125.629707,72.075745 
	C114.326691,71.738869 103.006760,71.938232 91.693962,71.992577 
	C89.905800,72.001160 88.119408,72.375862 85.813210,72.720978 
	C84.968788,71.870972 84.643356,70.881264 84.411148,69.764435 
	C84.542145,69.315498 84.374428,69.099098 84.000916,68.993149 
	C84.000603,68.998199 84.009834,69.002686 84.009834,69.002686 
	C84.030968,57.404842 84.030304,45.806873 84.096039,34.209282 
	C84.106239,32.410053 84.420143,30.612547 85.241837,28.426929 
	C98.576736,27.981359 111.263412,27.923101 124.382828,27.966385 
	C126.875557,28.042213 128.935532,28.016499 130.995483,27.990786 
M102.289917,50.627495 
	C106.054680,52.589653 109.747276,53.459820 113.843742,49.848377 
	C118.826210,45.464931 119.498535,40.103092 115.410927,35.120430 
	C112.502953,31.575701 108.612259,30.826118 104.260590,32.075104 
	C99.644897,33.399857 97.503258,36.913815 97.131805,41.229824 
	C96.819817,44.854858 97.653870,48.498367 102.289917,50.627495 
M122.126343,59.970535 
	C123.691475,59.171997 125.256607,58.373459 126.821747,57.574924 
	C125.307312,56.726593 123.812523,55.188408 122.275177,55.144623 
	C113.838547,54.904320 105.388824,54.925022 96.950768,55.138870 
	C95.622185,55.172539 94.330185,56.649883 93.021271,57.459717 
	C94.303238,58.296387 95.566238,59.821404 96.870277,59.857349 
	C104.976486,60.080803 113.091896,59.970421 122.126343,59.970535 
M125.636749,62.723827 
	C115.435669,62.485382 105.234978,62.205048 95.032570,62.109951 
	C94.403671,62.104088 93.761162,63.558804 93.124977,64.333954 
	C94.168388,64.881653 95.205086,65.889275 96.256264,65.904625 
	C105.031441,66.032791 113.811234,66.065948 122.583939,65.871391 
	C123.717934,65.846245 124.819481,64.358131 125.636749,62.723827 
z"/>
<path fill="#50170E" opacity="1.000000" stroke="none" 
	d="
M84.317917,69.891563 
	C84.643356,70.881264 84.968788,71.870972 85.533035,73.064651 
	C85.848007,73.666779 85.924179,74.064941 86.076813,75.073257 
	C86.418930,76.502167 86.684578,77.320908 86.950226,78.139648 
	C86.898407,82.488892 86.846588,86.838127 86.241364,91.619690 
	C83.773788,92.023033 81.859634,91.994072 79.677536,91.861359 
	C78.933266,91.284317 78.456932,90.811020 77.753494,90.231110 
	C77.364967,90.080757 77.203529,90.037010 77.090179,89.606277 
	C75.823273,88.013969 74.671410,86.055740 73.165932,85.729553 
	C65.335022,84.032845 58.363678,81.121811 54.249126,73.697731 
	C47.090515,77.919838 45.153633,84.359833 43.428051,91.253006 
	C41.826500,91.285141 40.478878,91.139610 39.131252,90.994080 
	C39.068676,90.822777 39.006100,90.651466 38.900871,89.986511 
	C38.858212,89.492867 38.654167,89.039780 38.654167,89.039780 
	C38.699326,87.298058 38.744484,85.556343 38.809280,83.159882 
	C38.828918,82.505150 38.687424,82.034386 38.687424,82.034386 
	C38.816055,80.979805 38.944691,79.925217 39.267929,78.224640 
	C39.601986,76.724182 39.741440,75.869713 39.880898,75.015244 
	C40.969967,72.599365 42.059032,70.183487 43.470726,67.377472 
	C44.820847,66.560051 45.914814,66.245804 46.865047,65.687103 
	C53.042488,62.054996 58.494320,56.709652 66.512199,57.492218 
	C66.334351,57.555416 66.156509,57.618610 66.190918,57.896175 
	C66.645157,58.415085 66.887138,58.719627 67.311874,59.237621 
	C68.320068,59.227894 69.145523,59.004715 69.970970,58.781540 
	C75.560036,60.557861 80.341942,63.443260 83.738800,68.803436 
	C84.009834,69.002686 84.000603,68.998199 84.036179,69.234482 
	C84.071754,69.470757 84.317917,69.891563 84.317917,69.891563 
z"/>
<path fill="#C3CFD4" opacity="1.000000" stroke="none" 
	d="
M84.561783,159.969070 
	C84.731071,153.248230 84.900360,146.527374 85.335876,139.361145 
	C85.768829,138.936310 85.935562,138.956848 86.404709,139.126373 
	C87.733475,139.511917 88.759819,139.748489 89.937241,140.276367 
	C91.304001,141.815918 92.519684,143.064163 93.912888,144.535690 
	C94.692451,145.468506 95.294495,146.178055 95.601189,147.071915 
	C95.545532,148.464279 95.785225,149.672302 96.260391,150.990326 
	C96.665672,151.065994 96.835495,151.031677 97.465546,151.092728 
	C113.690567,151.202087 129.455505,151.260391 145.220123,151.211945 
	C153.499771,151.186493 161.778824,150.974152 170.272278,150.875870 
	C170.486389,150.905548 170.915741,150.854660 170.915741,150.854660 
	C175.810242,158.053680 180.704742,165.252686 185.807190,172.713333 
	C185.681229,173.308365 185.347305,173.641754 184.472870,174.362122 
	C169.283066,174.669861 154.633789,174.590668 139.934937,174.263367 
	C139.567459,173.652802 139.249557,173.290344 138.904221,172.555328 
	C138.125076,168.812347 135.952713,167.455551 132.648560,168.029709 
	C127.560631,168.913864 120.843437,165.012192 117.869110,173.024185 
	C117.432678,173.603897 117.222969,174.057678 116.557037,174.625717 
	C109.129051,174.793839 102.157272,174.847702 95.188461,174.642075 
	C95.204880,174.210114 95.218353,174.037628 95.357651,173.782547 
	C95.612015,173.379791 95.495178,173.154846 95.103638,172.597473 
	C95.105309,170.457611 95.136330,168.745361 95.618408,167.022797 
	C122.249199,167.012466 148.428940,167.012466 176.103790,167.012466 
	C173.474762,162.621643 171.837921,159.249176 169.576279,156.366974 
	C168.355865,154.811676 166.076080,153.160889 164.258133,153.142487 
	C142.483780,152.921997 120.706215,152.966965 98.930252,153.082825 
	C97.644501,153.089676 96.365128,154.294617 95.061195,155.372375 
	C95.028450,157.521973 95.017303,159.241196 94.554932,160.960297 
	C90.923065,160.629807 87.742424,160.299438 84.561783,159.969070 
z"/>
<path fill="#F7B893" opacity="1.000000" stroke="none" 
	d="
M72.962112,134.589401 
	C69.341522,142.178909 59.809029,142.461548 53.366348,134.996216 
	C54.723885,133.439316 56.387890,132.047546 58.427872,130.146912 
	C61.211563,128.434494 63.619282,127.230934 66.268707,126.019409 
	C66.782333,125.878212 67.054260,125.744980 67.326187,125.611748 
	C66.878662,125.733650 66.431137,125.855537 65.570450,125.977646 
	C62.795246,125.660301 60.433205,125.342735 58.071163,125.025169 
	C51.188202,120.866859 45.508945,116.201317 42.348431,107.955856 
	C40.943901,104.291580 38.145592,101.435188 40.201450,96.879440 
	C41.939674,97.062065 42.956161,97.468483 44.086742,98.181686 
	C46.691998,104.411491 49.691921,105.941475 55.118515,104.589622 
	C59.221649,103.567459 59.681061,99.988014 61.361580,96.822006 
	C62.352356,95.764427 63.113106,94.924843 64.041328,94.341576 
	C64.586548,95.444702 65.081566,96.259407 65.323524,97.143379 
	C67.293961,104.342102 70.106102,106.667007 76.392731,104.517189 
	C79.049042,103.608833 80.806305,100.071465 83.170609,97.411469 
	C84.553925,96.833321 85.738853,96.572784 86.921036,96.653152 
	C86.816231,99.567390 86.714165,102.140724 86.445343,104.904892 
	C86.302078,105.419296 86.325577,105.742889 86.236084,106.148247 
	C86.123100,106.230019 85.885170,106.084419 85.503784,106.126144 
	C84.383049,106.977341 83.224319,107.674530 82.972656,108.614563 
	C81.377579,114.572609 77.680138,118.888268 72.661652,122.151871 
	C67.184387,125.713821 67.270508,131.348190 72.962112,134.589401 
M62.554771,111.889549 
	C60.825123,111.889549 59.095474,111.889549 57.365829,111.889549 
	C57.119305,112.549393 56.872780,113.209236 56.626255,113.869080 
	C58.822819,115.137512 60.973831,117.321907 63.227898,117.434006 
	C65.830597,117.563438 68.616264,115.953812 68.596252,111.889297 
	C66.720566,111.889297 65.075371,111.889297 62.554771,111.889549 
z"/>
<path fill="#F8BA96" opacity="1.000000" stroke="none" 
	d="
M43.240967,159.931168 
	C43.839188,162.659607 44.437408,165.388062 45.088661,168.519623 
	C44.168064,172.010681 43.194435,175.098633 42.094242,178.587982 
	C39.580566,178.587982 36.695728,178.587982 33.289799,178.587982 
	C33.142410,176.970184 32.999607,175.402679 32.784828,173.401245 
	C32.774151,169.225983 32.835442,165.484680 33.384304,161.297211 
	C36.994904,160.544449 40.117935,160.237808 43.240967,159.931168 
z"/>
<path fill="#AADAE7" opacity="1.000000" stroke="none" 
	d="
M43.164223,159.469147 
	C40.117935,160.237808 36.994904,160.544449 33.420097,160.825439 
	C32.959179,157.316238 33.000751,153.831650 32.929066,150.349380 
	C32.819893,145.045990 35.262917,141.586075 40.625408,139.829132 
	C41.649025,143.717178 42.438171,147.652573 42.922764,151.625092 
	C43.219334,154.056290 43.048435,156.544510 43.164223,159.469147 
z"/>
<path fill="#40100A" opacity="1.000000" stroke="none" 
	d="
M66.422943,57.163544 
	C58.494320,56.709652 53.042488,62.054996 46.865047,65.687103 
	C45.914814,66.245804 44.820847,66.560051 43.422859,66.992477 
	C42.795845,66.766861 42.539322,66.536110 42.382511,65.816399 
	C47.346828,62.676559 47.625420,58.628571 46.037369,53.770000 
	C46.136124,53.558170 46.266533,53.109299 46.266533,53.109295 
	C47.651611,52.439030 49.036694,51.768768 50.965958,50.984066 
	C51.510136,50.869625 51.962814,50.661457 51.962814,50.661457 
	C53.569927,50.681213 55.177040,50.700970 57.134529,50.871979 
	C57.484901,51.023232 57.483273,51.196178 57.483273,51.196178 
	C57.483273,51.196178 57.588085,50.892273 57.588085,50.892273 
	C57.829975,50.869331 58.071865,50.846390 58.900326,50.868607 
	C59.653877,50.892429 59.820862,50.871090 59.987846,50.849751 
	C62.103127,52.844788 64.218407,54.839828 66.422943,57.163544 
z"/>
<path fill="#020101" opacity="1.000000" stroke="none" 
	d="
M86.923775,96.312248 
	C85.738853,96.572784 84.553925,96.833321 82.881775,97.148697 
	C81.578194,95.457390 80.761841,93.711250 79.945480,91.965103 
	C81.859634,91.994072 83.773788,92.023033 86.093719,92.068008 
	C86.499504,92.084015 86.786583,92.174797 86.872917,92.361534 
	C87.294540,92.578339 87.629829,92.608406 87.965118,92.638474 
	C115.511101,92.638474 143.057083,92.638474 171.061401,92.638474 
	C171.061401,112.159554 171.061401,131.052643 170.988571,150.400208 
	C170.915741,150.854660 170.486389,150.905548 170.241135,150.593597 
	C169.930588,149.908768 169.865295,149.535873 169.870468,148.681244 
	C169.959686,131.534088 169.966202,114.868629 170.011230,98.203262 
	C170.017502,95.881104 170.035934,93.950340 166.745712,93.969620 
	C141.086151,94.119919 115.426003,94.165535 89.403717,94.210983 
	C88.335526,94.889748 87.629654,95.600998 86.923775,96.312248 
z"/>
<path fill="#FAFAFA" opacity="1.000000" stroke="none" 
	d="
M192.670380,51.866486 
	C192.854675,51.894440 193.038971,51.922394 193.577026,52.272369 
	C194.959579,54.763828 195.988403,56.933262 197.017212,59.102699 
	C197.017212,59.102703 197.004333,59.501728 196.640091,59.724121 
	C195.191071,61.297966 194.106308,62.649418 193.021530,64.000870 
	C193.021530,64.000870 193.001114,64.001373 192.748932,63.897545 
	C191.999084,64.198959 191.501419,64.604195 191.003754,65.009430 
	C191.003754,65.009438 190.999847,65.000000 190.561615,64.997681 
	C188.948776,65.066620 187.774170,65.137878 186.402740,65.202209 
	C186.205917,65.195274 185.933746,64.910545 185.933746,64.910545 
	C185.933746,64.910545 186.002441,64.974800 185.954620,64.660904 
	C180.850357,58.951458 180.736221,54.841934 185.908524,52.530312 
	C187.869659,51.653835 190.399658,52.050255 192.670380,51.866486 
z"/>
<path fill="#00BBC7" opacity="1.000000" stroke="none" 
	d="
M123.950089,27.864843 
	C111.263412,27.923101 98.576736,27.981359 85.416779,28.053999 
	C83.989342,24.772535 85.965279,24.573044 88.442108,24.579824 
	C100.056763,24.611626 111.671654,24.561277 123.703018,24.801407 
	C124.138138,25.290434 124.156693,25.518324 124.120087,26.097553 
	C124.026649,26.920879 123.988365,27.392862 123.950089,27.864843 
z"/>
<path fill="#182727" opacity="1.000000" stroke="none" 
	d="
M195.524475,71.180214 
	C193.816345,71.519875 192.029739,71.648750 190.418503,72.248650 
	C188.011429,73.144875 181.237808,70.898911 179.791000,68.627426 
	C179.349365,67.934074 178.459122,67.509247 177.735718,67.018349 
	C177.212921,66.663589 176.240448,66.504791 176.129364,66.084099 
	C175.266571,62.816822 174.564392,59.507133 173.812531,56.210564 
	C174.365036,56.049419 174.917542,55.888271 175.470047,55.727127 
	C176.251877,58.225235 177.033691,60.723347 177.784805,63.952316 
	C178.170609,64.730003 178.587128,64.776840 179.003647,64.823677 
	C182.082596,66.943207 185.161560,69.062737 187.918915,70.960884 
	C190.012817,70.137436 191.620621,69.505157 193.644699,69.280426 
	C194.548813,70.185379 195.036652,70.682800 195.524475,71.180214 
z"/>
<path fill="#FDFDFD" opacity="1.000000" stroke="none" 
	d="
M201.998184,129.990143 
	C202.155807,129.131241 202.313431,128.272324 203.126694,127.037018 
	C203.863632,124.925385 203.944931,123.190155 204.026245,121.454933 
	C204.520874,118.237579 205.015503,115.020226 205.552673,111.526131 
	C205.382477,111.459625 206.583954,111.704781 206.586670,111.962585 
	C206.683243,121.112946 206.667511,130.264496 206.000778,139.360428 
	C205.626007,137.302582 205.251221,135.244720 204.236420,133.077423 
	C203.063644,131.975357 202.530914,130.982758 201.998184,129.990143 
z"/>
<path fill="#727B7C" opacity="1.000000" stroke="none" 
	d="
M49.178772,31.862522 
	C49.763634,31.410757 50.366856,30.546206 50.930511,30.571270 
	C56.390259,30.814062 61.843361,31.206127 67.355347,31.842651 
	C67.412338,32.129726 67.137062,31.993454 67.137062,31.993454 
	C66.364304,32.686859 65.591545,33.380260 64.627350,34.245438 
	C62.727749,32.547325 61.094368,30.019165 58.232712,33.937923 
	C56.363091,36.498192 51.777012,34.969627 49.475735,31.932938 
	C49.020111,31.964600 49.178772,31.862522 49.178772,31.862522 
z"/>
<path fill="#222B2A" opacity="1.000000" stroke="none" 
	d="
M45.938618,53.981831 
	C47.625420,58.628571 47.346828,62.676559 42.269535,65.582550 
	C33.002499,65.898865 23.948153,65.960068 14.780483,65.654526 
	C20.758230,65.202858 26.852819,65.213470 32.938755,64.989227 
	C35.630531,64.890045 38.304779,64.315086 41.110344,63.597084 
	C41.852688,60.877987 42.471668,58.517921 43.359718,56.049267 
	C44.398731,55.287724 45.168674,54.634777 45.938618,53.981831 
z"/>
<path fill="#192827" opacity="1.000000" stroke="none" 
	d="
M192.019669,44.787476 
	C196.977798,44.393024 200.479370,49.272793 202.356232,53.318024 
	C204.678696,58.323650 201.310928,61.624767 201.200684,65.019440 
	C201.240250,65.608360 201.203781,65.493065 201.232635,65.397484 
	C201.279037,65.243713 201.463120,65.070862 201.425964,64.961464 
	C200.702637,62.831432 199.032578,61.143009 201.313446,58.415863 
	C202.269745,57.272446 201.050171,52.385475 199.499634,51.492317 
	C196.750183,49.908550 195.442352,45.345440 191.005173,46.097847 
	C191.293167,45.219154 191.656418,45.003315 192.019669,44.787476 
z"/>
<path fill="#F4F4F4" opacity="1.000000" stroke="none" 
	d="
M46.037369,53.770000 
	C45.168674,54.634777 44.398731,55.287724 43.183052,55.732880 
	C40.939743,54.496841 38.746716,53.828526 37.420433,52.371330 
	C33.771137,48.361813 31.471392,47.795589 27.171856,50.366661 
	C26.849758,49.110916 26.503918,47.762592 26.179943,46.056351 
	C26.234644,45.461639 26.267477,45.224846 26.300310,44.988052 
	C33.474670,45.798698 39.092426,50.315186 45.865173,53.073391 
	C46.266533,53.109299 46.136124,53.558170 46.037369,53.770000 
z"/>
<path fill="#121A1A" opacity="1.000000" stroke="none" 
	d="
M26.141380,44.639435 
	C26.267477,45.224846 26.234644,45.461639 25.806486,45.927834 
	C23.072029,45.643673 20.080978,44.030525 18.575508,44.923084 
	C17.043238,45.831539 17.018906,49.222794 16.236704,51.493267 
	C15.996238,52.191257 15.434875,52.778694 14.693398,53.306580 
	C13.590466,54.137268 12.814591,55.078129 12.019002,56.012230 
	C11.999288,56.005470 12.024440,56.039532 11.644602,56.111351 
	C10.494932,56.125996 9.725102,56.068829 8.955272,56.011662 
	C11.433637,51.884579 13.416829,47.322521 16.542618,43.764160 
	C19.177111,40.765083 23.009018,40.818241 26.141380,44.639435 
z"/>
<path fill="#F4F4F4" opacity="1.000000" stroke="none" 
	d="
M8.584045,56.072952 
	C9.725102,56.068829 10.494932,56.125996 11.796356,56.426521 
	C13.760948,58.427212 15.193947,60.184547 16.494526,61.779499 
	C15.698589,62.433060 14.852966,63.127426 13.624222,63.890114 
	C12.305369,63.619606 11.369638,63.280781 10.433907,62.941956 
	C5.502019,62.040245 6.183722,59.307041 8.584045,56.072952 
z"/>
<path fill="#FDFDFD" opacity="1.000000" stroke="none" 
	d="
M191.971619,121.027824 
	C191.534454,121.813126 190.818100,122.564926 190.718994,123.390793 
	C190.520630,125.043823 190.660110,126.737396 190.660110,128.414230 
	C190.175476,128.398682 189.690826,128.383133 189.206192,128.367584 
	C189.206192,122.672974 189.206192,116.978363 189.206192,111.317650 
	C193.295410,111.470383 194.024612,113.494873 192.055542,120.591797 
	C191.999695,121.000267 191.971619,121.027824 191.971619,121.027824 
z"/>
<path fill="#FDFDFD" opacity="1.000000" stroke="none" 
	d="
M166.268127,29.963154 
	C167.275085,29.934734 167.900711,29.931347 168.526337,29.927958 
	C168.276550,30.562698 168.195358,31.564932 167.748444,31.769943 
	C165.562454,32.772713 163.246002,34.312065 161.039368,34.214931 
	C158.888657,34.120262 156.815002,32.275009 154.818466,29.988184 
	C158.507904,29.988184 162.197357,29.988184 166.268127,29.963154 
z"/>
<path fill="#EAEBEC" opacity="1.000000" stroke="none" 
	d="
M186.009155,46.012417 
	C184.576614,46.825283 182.801880,47.342468 181.787430,48.516582 
	C180.028366,50.552517 178.739868,52.995026 177.213806,55.328522 
	C176.796097,54.599773 175.942719,53.110985 174.593185,50.756615 
	C179.052353,50.703705 178.216537,41.221382 185.648346,45.941235 
	C186.000565,46.000755 186.009155,46.012417 186.009155,46.012417 
z"/>
<path fill="#FDFDFD" opacity="1.000000" stroke="none" 
	d="
M192.013748,120.986534 
	C193.533813,120.463745 195.039841,119.954689 197.011429,119.288261 
	C196.276825,120.928101 195.425735,122.827957 194.436310,125.036621 
	C197.464294,126.877174 198.011932,129.511856 195.010696,133.723953 
	C193.814056,129.033478 192.902023,125.458542 191.980804,121.455719 
	C191.971619,121.027824 191.999695,121.000267 192.013748,120.986534 
z"/>
<path fill="#FDFDFD" opacity="1.000000" stroke="none" 
	d="
M148.989090,70.208618 
	C148.497360,68.512627 148.283661,67.005783 148.039780,65.286186 
	C151.202591,65.971573 153.717163,66.516479 156.384399,67.094467 
	C156.539688,70.648651 155.030685,71.458305 148.989090,70.208618 
z"/>
<path fill="#1A2727" opacity="1.000000" stroke="none" 
	d="
M192.599426,51.632240 
	C190.399658,52.050255 187.869659,51.653835 185.908524,52.530312 
	C180.736221,54.841934 180.850357,58.951458 185.987167,64.694855 
	C184.303162,63.052906 181.613754,61.319489 180.975754,59.017513 
	C179.811569,54.817039 182.221359,51.721153 186.755646,50.386250 
	C188.535385,50.616459 189.830856,50.538284 191.126328,50.460114 
	C191.593704,50.772739 192.061096,51.085361 192.599426,51.632240 
z"/>
<path fill="#FDFDFD" opacity="1.000000" stroke="none" 
	d="
M191.060730,130.229675 
	C191.917419,132.790039 192.713303,135.256744 192.694962,137.717392 
	C192.689560,138.441940 190.379517,139.149292 188.448532,139.229889 
	C190.987381,136.251190 192.827835,133.910400 187.480270,131.764297 
	C189.062393,130.960297 189.875671,130.546997 191.060730,130.229675 
z"/>
<path fill="#000000" opacity="1.000000" stroke="none" 
	d="
M10.479425,63.314613 
	C11.369638,63.280781 12.305369,63.619606 14.085651,63.974758 
	C23.615797,63.979427 32.301392,63.967770 40.986984,63.956116 
	C38.304779,64.315086 35.630531,64.890045 32.938755,64.989227 
	C26.852819,65.213470 20.758230,65.202858 14.327841,65.522034 
	C12.833996,65.066628 11.679470,64.376953 10.479425,63.314613 
z"/>
<path fill="#160C09" opacity="1.000000" stroke="none" 
	d="
M43.972649,97.874908 
	C42.956161,97.468483 41.939674,97.062065 40.572708,96.649437 
	C39.810715,95.012878 39.399193,93.382530 39.059464,91.373131 
	C40.478878,91.139610 41.826500,91.285141 43.810959,91.393723 
	C45.256985,91.267189 46.066170,91.177597 46.825054,91.429047 
	C45.840717,93.805031 44.906681,95.839966 43.972649,97.874908 
z"/>
<path fill="#FDFDFD" opacity="1.000000" stroke="none" 
	d="
M197.624603,89.644295 
	C201.014801,89.714523 204.118210,90.030060 207.691971,90.393425 
	C206.902039,91.826866 206.238647,93.030685 205.345154,94.652100 
	C202.638107,93.042038 199.987976,91.465820 197.624603,89.644295 
z"/>
<path fill="#FDFDFD" opacity="1.000000" stroke="none" 
	d="
M18.961523,89.806259 
	C20.580650,90.198906 22.199776,90.591545 23.754204,91.766434 
	C23.784746,93.207047 23.879992,93.865410 23.975235,94.523781 
	C21.568502,97.567528 19.994177,94.550316 18.341349,93.166336 
	C18.695929,91.677498 18.828726,90.741882 18.961523,89.806259 
z"/>
<path fill="#F4F4F4" opacity="1.000000" stroke="none" 
	d="
M203.003662,114.329178 
	C201.979904,117.444664 200.943848,120.185234 199.907776,122.925812 
	C199.410553,122.752457 198.913345,122.579102 198.416122,122.405746 
	C199.197281,118.669281 199.978424,114.932823 200.847641,110.775131 
	C201.541885,111.804680 202.266617,112.879471 203.003662,114.329178 
z"/>
<path fill="#FDFDFD" opacity="1.000000" stroke="none" 
	d="
M190.528320,90.899185 
	C192.291626,90.690102 193.767868,90.475876 196.003937,90.151382 
	C195.640335,92.324089 195.336288,94.140938 195.032242,95.957794 
	C194.640091,96.168266 194.247955,96.378738 193.855804,96.589218 
	C192.650970,94.690819 191.446121,92.792427 190.528320,90.899185 
z"/>
<path fill="#D19A7B" opacity="1.000000" stroke="none" 
	d="
M58.045578,125.431808 
	C60.433205,125.342735 62.795246,125.660301 65.580414,125.990677 
	C66.003548,126.003487 66.026993,126.027374 66.026993,126.027374 
	C63.619282,127.230934 61.211563,128.434494 58.480949,129.767120 
	C58.112030,128.543610 58.066013,127.191032 58.045578,125.431808 
z"/>
<path fill="#EAEBEC" opacity="1.000000" stroke="none" 
	d="
M191.961823,44.446102 
	C191.656418,45.003315 191.293167,45.219154 190.800934,45.732132 
	C189.303070,46.097794 187.934189,46.166313 186.287231,46.123627 
	C186.009155,46.012417 186.000565,46.000755 185.996552,45.995693 
	C187.370499,41.116104 188.479156,40.762413 191.961823,44.446102 
z"/>
<path fill="#EAEBEC" opacity="1.000000" stroke="none" 
	d="
M201.836395,130.351624 
	C202.530914,130.982758 203.063644,131.975357 203.887863,132.999771 
	C203.359818,134.718262 202.540268,136.404968 201.286743,137.847626 
	C200.802261,137.410355 200.751755,137.217087 200.701248,137.023834 
	C201.025711,134.920258 201.350159,132.816666 201.836395,130.351624 
z"/>
<path fill="#EAEBEC" opacity="1.000000" stroke="none" 
	d="
M195.865112,71.141403 
	C195.036652,70.682800 194.548813,70.185379 194.017792,69.381836 
	C195.157059,67.831390 196.339508,66.587067 197.521957,65.342743 
	C198.003540,65.605530 198.485123,65.868324 198.966705,66.131111 
	C198.046387,67.788277 197.126053,69.445435 195.865112,71.141403 
z"/>
<path fill="#697978" opacity="1.000000" stroke="none" 
	d="
M9.944107,91.999245 
	C11.588158,91.564201 13.232209,91.129158 15.303010,90.807823 
	C15.469732,91.418846 15.209705,91.916168 14.949680,92.413490 
	C14.765759,92.465637 14.581836,92.517776 14.350142,93.029999 
	C14.302370,93.490074 14.571479,93.719788 14.571479,93.719788 
	C14.571479,93.719788 14.924273,93.691666 14.924273,93.691666 
	C14.355316,94.024864 13.786359,94.358070 12.289745,94.662224 
	C10.913145,94.085442 10.464200,93.537697 9.968823,92.744339 
	C9.922393,92.498711 9.944107,91.999245 9.944107,91.999245 
z"/>
<path fill="#EAEBEC" opacity="1.000000" stroke="none" 
	d="
M197.277512,58.872330 
	C195.988403,56.933262 194.959579,54.763828 193.856186,52.288208 
	C195.033661,54.202000 196.285736,56.421982 197.277512,58.872330 
z"/>
<path fill="#2ABAC9" opacity="1.000000" stroke="none" 
	d="
M124.382835,27.966385 
	C123.988365,27.392862 124.026649,26.920879 124.525101,26.129177 
	C126.577515,25.305000 128.169754,24.800545 129.762009,24.296089 
	C130.199844,25.241137 130.637695,26.186182 131.035522,27.561007 
	C128.935532,28.016499 126.875557,28.042213 124.382835,27.966385 
z"/>
<path fill="#FDFDFD" opacity="1.000000" stroke="none" 
	d="
M49.079353,31.891144 
	C49.138599,32.736462 49.138599,33.655239 49.138599,35.975002 
	C47.293800,33.902271 46.134037,32.599216 44.974274,31.296162 
	C46.157387,31.489412 47.340496,31.682659 48.851189,31.869215 
	C49.178772,31.862522 49.020111,31.964600 49.079353,31.891144 
z"/>
<path fill="#FDFDFD" opacity="1.000000" stroke="none" 
	d="
M9.633217,91.970047 
	C9.944107,91.999245 9.922393,92.498711 9.775221,92.935699 
	C9.323854,93.571991 9.019661,93.771286 8.715467,93.970589 
	C7.362802,93.650375 6.010137,93.330162 4.657472,93.009956 
	C4.739526,92.474373 4.821579,91.938797 4.903633,91.403214 
	C6.376531,91.582428 7.849429,91.761642 9.633217,91.970047 
z"/>
<path fill="#C2DAE7" opacity="1.000000" stroke="none" 
	d="
M129.479034,24.159866 
	C128.169754,24.800545 126.577515,25.305000 124.580261,25.777836 
	C124.156693,25.518324 124.138138,25.290434 124.179474,24.724373 
	C125.891594,24.265347 127.543839,24.144495 129.479034,24.159866 
z"/>
<path fill="#EAEBEC" opacity="1.000000" stroke="none" 
	d="
M193.305573,64.108643 
	C194.106308,62.649418 195.191071,61.297966 196.639435,59.923744 
	C195.865219,61.339455 194.727417,62.777939 193.305573,64.108643 
z"/>
<path fill="#AFAFB3" opacity="1.000000" stroke="none" 
	d="
M24.352936,94.551941 
	C23.879992,93.865410 23.784746,93.207047 23.828522,92.067734 
	C24.138103,91.609177 24.308668,91.631561 25.177982,91.391769 
	C26.149981,90.939949 26.423233,90.750313 26.696487,90.560684 
	C27.562851,91.468880 28.429213,92.377075 29.813099,93.827782 
	C27.438053,94.179337 26.084345,94.379715 24.352936,94.551941 
z"/>
<path fill="#EAEBEC" opacity="1.000000" stroke="none" 
	d="
M15.293503,92.611977 
	C15.209705,91.916168 15.469732,91.418846 15.534190,90.742470 
	C16.242601,90.364929 17.146582,90.166451 18.506042,89.887115 
	C18.828726,90.741882 18.695929,91.677498 18.280861,92.837570 
	C17.211502,92.978172 16.424414,92.894318 15.293503,92.611977 
z"/>
<path fill="#FDFDFD" opacity="1.000000" stroke="none" 
	d="
M144.149139,68.322495 
	C144.788406,68.296577 145.352249,68.595787 145.916092,68.895004 
	C145.648117,69.398956 145.380142,69.902916 145.112183,70.406876 
	C144.766022,69.820450 144.419876,69.234032 144.149139,68.322495 
z"/>
<path fill="#EAEBEC" opacity="1.000000" stroke="none" 
	d="
M186.599548,65.209137 
	C187.774170,65.137878 188.948776,65.066620 190.565552,64.999756 
	C189.730011,65.402084 188.452347,65.800011 186.889023,65.816772 
	C186.603378,65.435600 186.599548,65.209137 186.599548,65.209137 
z"/>
<path fill="#EAEBEC" opacity="1.000000" stroke="none" 
	d="
M190.971375,50.120087 
	C189.830856,50.538284 188.535385,50.616459 187.113251,50.368999 
	C188.263199,49.955601 189.539810,49.867832 190.971375,50.120087 
z"/>
<path fill="#FDFDFD" opacity="1.000000" stroke="none" 
	d="
M141.203918,68.192307 
	C141.765259,67.947594 142.265198,68.001396 142.765152,68.055199 
	C142.651550,68.503571 142.537949,68.951950 142.424347,69.400322 
	C141.997086,69.097153 141.569809,68.793983 141.203918,68.192307 
z"/>
<path fill="#FDFDFD" opacity="1.000000" stroke="none" 
	d="
M69.768669,58.570709 
	C69.145523,59.004715 68.320068,59.227894 67.426689,58.978035 
	C67.333351,58.317513 67.307938,58.130028 67.282516,57.942539 
	C68.043800,58.081650 68.805084,58.220764 69.768669,58.570709 
z"/>
<path fill="#FDFDFD" opacity="1.000000" stroke="none" 
	d="
M26.747898,90.387413 
	C26.423233,90.750313 26.149981,90.939949 25.434006,91.359528 
	C25.325602,90.832268 25.659922,90.075043 25.994244,89.317825 
	C26.262598,89.616600 26.530954,89.915367 26.747898,90.387413 
z"/>
<path fill="#8F8F92" opacity="1.000000" stroke="none" 
	d="
M203.756256,121.775719 
	C203.944931,123.190155 203.863632,124.925385 203.387283,126.831711 
	C203.156921,125.367378 203.321609,123.731941 203.756256,121.775719 
z"/>
<path fill="#EAEBEC" opacity="1.000000" stroke="none" 
	d="
M191.260422,65.119980 
	C191.501419,64.604195 191.999084,64.198959 192.745056,63.906937 
	C192.501266,64.423615 192.009171,64.827072 191.260422,65.119980 
z"/>
<path fill="#FDFDFD" opacity="1.000000" stroke="none" 
	d="
M200.450089,137.064453 
	C200.751755,137.217087 200.802261,137.410355 200.891937,137.901016 
	C200.451431,138.260330 199.971756,138.322220 199.492096,138.384125 
	C199.727707,137.957779 199.963318,137.531433 200.450089,137.064453 
z"/>
<path fill="#B6B6B9" opacity="1.000000" stroke="none" 
	d="
M8.859660,94.272751 
	C9.019661,93.771286 9.323854,93.571991 9.821651,93.181320 
	C10.464200,93.537697 10.913145,94.085442 11.708582,94.790298 
	C11.038000,94.823257 10.020926,94.699089 8.859660,94.272751 
z"/>
<path fill="#FDFDFD" opacity="1.000000" stroke="none" 
	d="
M151.535400,31.390184 
	C151.651199,30.941668 151.933716,30.666737 152.234146,30.413025 
	C152.241821,30.406549 152.446304,30.633131 152.559021,30.751020 
	C152.274155,31.022858 151.989304,31.294699 151.535400,31.390184 
z"/>
<path fill="#FDFDFD" opacity="1.000000" stroke="none" 
	d="
M39.638901,75.242294 
	C39.741440,75.869713 39.601986,76.724182 39.244972,77.824982 
	C39.150578,77.203987 39.273743,76.336670 39.638901,75.242294 
z"/>
<path fill="#FDFDFD" opacity="1.000000" stroke="none" 
	d="
M70.605202,30.783089 
	C70.465401,31.208889 70.193001,31.468761 69.902626,31.706705 
	C69.891129,31.716127 69.708504,31.516716 69.605614,31.414608 
	C69.893555,31.147507 70.181496,30.880407 70.605202,30.783089 
z"/>
<path fill="#3D4E4D" opacity="1.000000" stroke="none" 
	d="
M67.059036,32.308475 
	C67.137062,31.993454 67.412338,32.129726 67.564461,32.108685 
	C67.795395,32.714108 67.874199,33.340576 67.953003,33.967041 
	C67.629005,33.519192 67.305000,33.071346 67.059036,32.308475 
z"/>
<path fill="#FDFDFD" opacity="1.000000" stroke="none" 
	d="
M172.136032,31.698212 
	C171.946442,31.391088 171.972061,31.052198 171.997681,30.713310 
	C172.233810,30.784946 172.469955,30.856585 172.706085,30.928221 
	C172.587799,31.174295 172.469513,31.420370 172.136032,31.698212 
z"/>
<path fill="#FDFDFD" opacity="1.000000" stroke="none" 
	d="
M86.964844,77.804344 
	C86.684578,77.320908 86.418930,76.502167 86.189606,75.355759 
	C86.477104,75.841736 86.728287,76.655388 86.964844,77.804344 
z"/>
<path fill="#FDFDFD" opacity="1.000000" stroke="none" 
	d="
M159.352142,68.258087 
	C159.041595,68.430054 158.690811,68.389275 158.340027,68.348495 
	C158.427475,68.104889 158.514923,67.861282 158.602386,67.617676 
	C158.838882,67.760239 159.075394,67.902794 159.352142,68.258087 
z"/>
<path fill="#FDFDFD" opacity="1.000000" stroke="none" 
	d="
M196.695831,139.159882 
	C196.415359,139.496750 196.166214,139.615707 195.917084,139.734650 
	C195.845383,139.494583 195.773697,139.254532 195.701996,139.014465 
	C196.043716,138.990295 196.385437,138.966110 196.695831,139.159882 
z"/>
<path fill="#AFAFB3" opacity="1.000000" stroke="none" 
	d="
M30.696932,91.007210 
	C30.517477,91.129051 30.341381,91.070137 30.165283,91.011230 
	C30.343618,90.949646 30.521955,90.888054 30.696932,91.007210 
z"/>
<path fill="#FDFDFD" opacity="1.000000" stroke="none" 
	d="
M51.853966,50.545898 
	C51.962814,50.661457 51.510136,50.869625 51.263786,50.832516 
	C51.162582,50.434723 51.405140,50.313034 51.853966,50.545898 
z"/>
<path fill="#1A2727" opacity="1.000000" stroke="none" 
	d="
M186.402740,65.202209 
	C186.599548,65.209137 186.603378,65.435600 186.703857,65.487823 
	C186.548340,65.502968 186.320404,65.402328 186.027145,65.074341 
	C185.933746,64.910545 186.205917,65.195274 186.402740,65.202209 
z"/>
<path fill="#EAEBEC" opacity="1.000000" stroke="none" 
	d="
M14.891052,93.534538 
	C14.924273,93.691666 14.571479,93.719788 14.571479,93.719788 
	C14.571479,93.719788 14.302370,93.490074 14.315567,93.314651 
	C14.578351,93.055962 14.754706,93.135353 14.891052,93.534538 
z"/>
<path fill="#FDFDFD" opacity="1.000000" stroke="none" 
	d="
M87.840393,92.488586 
	C87.629829,92.608406 87.294540,92.578339 86.992134,92.269608 
	C87.285645,92.046478 87.515862,92.162392 87.840393,92.488586 
z"/>
<path fill="#FDFDFD" opacity="1.000000" stroke="none" 
	d="
M38.538971,89.142471 
	C38.654167,89.039780 38.858212,89.492867 38.796677,89.733574 
	C38.395557,89.812447 38.291767,89.569405 38.538971,89.142471 
z"/>
<path fill="#FDFDFD" opacity="1.000000" stroke="none" 
	d="
M38.565880,82.122559 
	C38.687424,82.034386 38.828918,82.505150 38.731190,82.730652 
	C38.330917,82.753151 38.267876,82.504677 38.565880,82.122559 
z"/>
<path fill="#EAEBEC" opacity="1.000000" stroke="none" 
	d="
M178.841553,64.622284 
	C178.587128,64.776840 178.170609,64.730003 177.747650,64.360291 
	C178.053970,64.165230 178.366714,64.293060 178.841553,64.622284 
z"/>
<path fill="#40100A" opacity="1.000000" stroke="none" 
	d="
M67.087990,57.840790 
	C67.307938,58.130028 67.333351,58.317513 67.243942,58.764587 
	C66.887138,58.719627 66.645157,58.415085 66.460068,57.811859 
	C66.516960,57.513176 66.893463,57.739040 67.087990,57.840790 
z"/>
<path fill="#FDFDFD" opacity="1.000000" stroke="none" 
	d="
M57.622162,50.918037 
	C57.588085,50.892273 57.483273,51.196178 57.483273,51.196178 
	C57.483273,51.196178 57.484901,51.023232 57.611195,50.970291 
	C57.737488,50.917355 57.656242,50.943798 57.622162,50.918037 
z"/>
<path fill="#FDFDFD" opacity="1.000000" stroke="none" 
	d="
M59.910442,50.704418 
	C59.820862,50.871090 59.653877,50.892429 59.259148,50.804710 
	C59.268780,50.363045 59.535992,50.317524 59.910442,50.704418 
z"/>
<path fill="#232231" opacity="1.000000" stroke="none" 
	d="
M15.228018,226.913696 
	C13.672483,227.548935 12.116951,228.184143 9.574498,229.222382 
	C10.180222,226.206909 10.520652,224.512131 11.017838,222.036987 
	C11.785397,223.386749 12.143060,224.015701 12.914103,225.069397 
	C13.960995,225.967331 14.594508,226.440521 15.228018,226.913696 
z"/>
<path fill="#9E9FA4" opacity="1.000000" stroke="none" 
	d="
M37.309834,225.117447 
	C39.411610,224.884933 41.513386,224.652405 43.619606,224.414246 
	C41.306805,225.541687 38.989559,226.674774 36.992912,227.207764 
	C37.312290,226.110931 37.311062,225.614197 37.309834,225.117447 
z"/>
<path fill="#171522" opacity="1.000000" stroke="none" 
	d="
M32.957150,228.383942 
	C29.650032,231.431046 28.665642,228.603333 27.304714,225.836197 
	C27.424927,225.265976 27.743067,225.086945 28.332233,224.952759 
	C28.944107,224.863510 29.284950,224.729431 29.829525,224.889740 
	C30.427746,225.435989 30.822237,225.687851 31.489792,226.083588 
	C32.160957,226.946289 32.559052,227.665115 32.957150,228.383942 
z"/>
<path fill="#060719" opacity="1.000000" stroke="none" 
	d="
M19.015072,229.031403 
	C18.086641,228.467026 17.158209,227.902649 16.107002,226.815674 
	C16.278336,225.866211 16.572441,225.439346 16.866549,225.012482 
	C17.648811,225.009415 18.431076,225.006363 19.572615,225.355087 
	C19.626284,226.815048 19.320679,227.923233 19.015072,229.031403 
z"/>
<path fill="#656670" opacity="1.000000" stroke="none" 
	d="
M28.061207,224.907913 
	C27.743067,225.086945 27.424927,225.265976 27.040970,225.721252 
	C26.214214,226.704071 25.453278,227.410660 24.269079,227.827866 
	C23.818024,227.358139 23.790232,227.177811 23.819361,226.606995 
	C23.593189,225.941589 23.310099,225.666672 23.027008,225.391754 
	C22.684734,225.830032 22.342461,226.268311 21.628498,226.445404 
	C21.159925,225.897263 21.063042,225.610306 20.966156,225.323364 
	C21.140549,225.104248 21.314941,224.885147 21.740849,224.335327 
	C21.992361,224.004608 21.967218,223.954758 21.967218,223.954758 
	C22.729723,223.962006 23.492229,223.969254 24.995312,223.996063 
	C26.452063,223.972137 27.168234,223.928635 27.918615,224.142548 
	C27.988951,224.569275 28.025080,224.738586 28.061207,224.907913 
z"/>
<path fill="#05071D" opacity="1.000000" stroke="none" 
	d="
M23.762442,226.997467 
	C23.790232,227.177811 23.818024,227.358139 23.909767,227.804703 
	C22.496971,228.453171 21.020226,228.835403 19.279278,229.124512 
	C19.320679,227.923233 19.626284,226.815048 19.963726,225.361816 
	C20.160244,225.067566 20.324928,225.118378 20.778130,225.505417 
	C21.380638,226.156723 21.694630,226.471786 22.295645,226.857269 
	C22.975927,226.950958 23.369184,226.974213 23.762442,226.997467 
z"/>
<path fill="#83838B" opacity="1.000000" stroke="none" 
	d="
M33.304573,228.424072 
	C32.559052,227.665115 32.160957,226.946289 31.445599,225.870514 
	C31.128338,225.513550 31.242247,225.093552 31.486996,224.982574 
	C31.826900,224.541870 31.922054,224.212143 31.989748,223.712143 
	C31.962288,223.541885 31.944197,223.197433 31.944197,223.197433 
	C32.589710,223.227371 33.235222,223.257324 34.041386,224.000717 
	C34.228577,225.862640 34.255112,227.011108 34.281651,228.159576 
	C34.071766,228.261124 33.861881,228.362656 33.304573,228.424072 
z"/>
<path fill="#00051E" opacity="1.000000" stroke="none" 
	d="
M16.714218,224.738129 
	C16.572441,225.439346 16.278336,225.866211 15.914064,226.550995 
	C15.843898,226.808929 15.541567,226.906036 15.384794,226.909866 
	C14.594508,226.440521 13.960995,225.967331 13.157137,225.248444 
	C14.178490,224.823090 15.370189,224.643433 16.714218,224.738129 
z"/>
<path fill="#A6A7AB" opacity="1.000000" stroke="none" 
	d="
M31.569939,223.088867 
	C31.944197,223.197433 31.962288,223.541885 31.675987,223.731171 
	C30.843145,224.145004 30.296604,224.369553 29.719002,224.595184 
	C29.687943,224.596268 29.625792,224.595352 29.625793,224.595352 
	C29.284950,224.729431 28.944107,224.863510 28.332235,224.952759 
	C28.025080,224.738586 27.988951,224.569275 27.986736,223.933594 
	C28.020649,223.467209 28.142223,223.044846 28.142223,223.044846 
	C29.160042,223.023331 30.177860,223.001816 31.569939,223.088867 
z"/>
<path fill="#A6A7AB" opacity="1.000000" stroke="none" 
	d="
M36.406853,227.002563 
	C36.183868,227.349197 35.960884,227.695847 35.341110,227.629486 
	C35.016346,226.192307 35.088364,225.168106 35.160381,224.143906 
	C35.502483,224.146713 35.749809,224.301239 35.975067,225.152222 
	C36.167473,226.132156 36.287159,226.567368 36.406853,227.002563 
z"/>
<path fill="#444555" opacity="1.000000" stroke="none" 
	d="
M34.943077,224.056061 
	C35.088364,225.168106 35.016346,226.192307 34.982067,227.600739 
	C35.019810,227.984955 34.655849,228.096100 34.468750,228.127838 
	C34.255112,227.011108 34.228577,225.862640 34.237167,224.281799 
	C34.272301,223.849426 34.725769,223.968231 34.943077,224.056061 
z"/>
<path fill="#060719" opacity="1.000000" stroke="none" 
	d="
M27.793579,223.030014 
	C28.142223,223.044846 28.020649,223.467209 27.952528,223.676178 
	C27.168234,223.928635 26.452063,223.972137 25.376667,223.991882 
	C25.826609,223.650482 26.635771,223.332825 27.793579,223.030014 
z"/>
<path fill="#121A1A" opacity="1.000000" stroke="none" 
	d="
M36.471962,226.998840 
	C36.287159,226.567368 36.167473,226.132156 36.091988,225.348938 
	C36.332191,225.015854 36.528194,225.030777 37.017017,225.081573 
	C37.311062,225.614197 37.312290,226.110931 36.990494,226.799713 
	C36.667465,226.991760 36.537075,226.995132 36.471962,226.998840 
z"/>
<path fill="#060719" opacity="1.000000" stroke="none" 
	d="
M22.008625,226.786850 
	C21.694630,226.471786 21.380638,226.156723 21.011559,225.616516 
	C20.956469,225.391357 20.992735,225.354004 20.979446,225.338684 
	C21.063042,225.610306 21.159925,225.897263 21.633055,226.439575 
	C22.009302,226.694962 22.008627,226.786850 22.008625,226.786850 
z"/>
<path fill="#9E9FA4" opacity="1.000000" stroke="none" 
	d="
M43.422447,228.354370 
	C43.488235,228.297546 43.512146,228.503540 43.512146,228.503540 
	C43.512146,228.503540 43.356663,228.411194 43.422447,228.354370 
z"/>
<path fill="#9E9FA4" opacity="1.000000" stroke="none" 
	d="
M45.485291,228.515106 
	C45.418888,228.423248 45.682629,228.404053 45.682629,228.404053 
	C45.682629,228.404053 45.551693,228.606979 45.485291,228.515106 
z"/>
<path fill="#060719" opacity="1.000000" stroke="none" 
	d="
M21.971291,223.984146 
	C21.839712,223.823807 21.729204,223.683914 21.618696,223.544037 
	C21.701893,223.591965 21.785089,223.639893 21.917751,223.821289 
	C21.967218,223.954758 21.992361,224.004608 21.971291,223.984146 
z"/>
<path fill="#030206" opacity="1.000000" stroke="none" 
	d="
M95.185501,174.901566 
	C102.157272,174.847702 109.129051,174.793839 117.016251,174.720840 
	C125.282623,174.638290 132.633575,174.574875 139.984512,174.511459 
	C154.633789,174.590668 169.283066,174.669861 184.347198,174.696457 
	C186.594971,178.478577 184.015030,178.384659 181.463715,178.383331 
	C163.633911,178.374054 145.804077,178.390823 127.974289,178.374237 
	C117.311119,178.364319 106.647995,178.309128 95.551880,177.768555 
	C95.141106,176.475723 95.163307,175.688644 95.185501,174.901566 
z"/>
<path fill="#F8BA96" opacity="1.000000" stroke="none" 
	d="
M95.188461,174.642075 
	C95.163307,175.688644 95.141106,176.475723 95.099365,177.656189 
	C90.727989,179.160187 86.317177,180.576889 83.065887,175.378662 
	C83.124565,171.783554 83.153656,168.547577 83.364510,165.323471 
	C83.468056,163.740097 83.908600,162.178757 84.379211,160.288269 
	C87.742424,160.299438 90.923065,160.629807 94.565941,161.368500 
	C95.050842,162.861954 95.073509,163.947083 95.073151,165.365967 
	C95.089211,166.144196 95.128281,166.588669 95.167351,167.033127 
	C95.136330,168.745361 95.105309,170.457611 95.087173,172.812195 
	C95.100060,173.454529 95.231819,173.865158 95.231819,173.865158 
	C95.218353,174.037628 95.204880,174.210114 95.188461,174.642075 
z"/>
<path fill="#FEFDFD" opacity="1.000000" stroke="none" 
	d="
M73.356628,134.632034 
	C67.270508,131.348190 67.184387,125.713821 72.661652,122.151871 
	C77.680138,118.888268 81.377579,114.572609 82.972656,108.614563 
	C83.224319,107.674530 84.383049,106.977341 85.604591,106.574432 
	C86.091957,117.646461 86.097122,128.311920 86.102287,138.977386 
	C85.935562,138.956848 85.768829,138.936310 85.350952,138.935806 
	C81.316910,137.528793 77.534027,136.101730 73.356628,134.632034 
z"/>
<path fill="#92B1C0" opacity="1.000000" stroke="none" 
	d="
M101.902382,49.934013 
	C97.653870,48.498367 96.819817,44.854858 97.131805,41.229824 
	C97.503258,36.913815 99.644897,33.399857 104.260590,32.075104 
	C108.612259,30.826118 112.502953,31.575701 115.410927,35.120430 
	C119.498535,40.103092 118.826210,45.464931 113.242836,49.631607 
	C111.105797,48.740368 109.569672,48.065899 107.832008,47.302944 
	C112.033844,42.738892 113.419037,37.246147 110.715637,35.035168 
	C109.382065,33.944508 106.280441,33.679825 104.721657,34.483009 
	C101.632103,36.074940 102.296440,41.226692 106.006744,47.503918 
	C104.638054,48.314285 103.270218,49.124149 101.902382,49.934013 
z"/>
<path fill="#F3F7FA" opacity="1.000000" stroke="none" 
	d="
M121.665298,59.970650 
	C113.091896,59.970421 104.976486,60.080803 96.870277,59.857349 
	C95.566238,59.821404 94.303238,58.296387 93.021271,57.459717 
	C94.330185,56.649883 95.622185,55.172539 96.950768,55.138870 
	C105.388824,54.925022 113.838547,54.904320 122.275177,55.144623 
	C123.812523,55.188408 125.307312,56.726593 126.821747,57.574921 
	C125.256607,58.373459 123.691475,59.171997 121.665298,59.970650 
z"/>
<path fill="#F9FBFC" opacity="1.000000" stroke="none" 
	d="
M102.096146,50.280754 
	C103.270218,49.124149 104.638054,48.314285 106.006744,47.503918 
	C102.296440,41.226692 101.632103,36.074940 104.721657,34.483009 
	C106.280441,33.679825 109.382065,33.944508 110.715637,35.035168 
	C113.419037,37.246147 112.033844,42.738892 107.832008,47.302944 
	C109.569672,48.065899 111.105797,48.740368 112.894829,49.662354 
	C109.747276,53.459820 106.054680,52.589653 102.096146,50.280754 
z"/>
<path fill="#FBFCFD" opacity="1.000000" stroke="none" 
	d="
M125.786407,63.135765 
	C124.819481,64.358131 123.717934,65.846245 122.583939,65.871391 
	C113.811234,66.065948 105.031441,66.032791 96.256264,65.904625 
	C95.205086,65.889275 94.168388,64.881653 93.124985,64.333954 
	C93.761162,63.558804 94.403671,62.104088 95.032570,62.109951 
	C105.234978,62.205048 115.435669,62.485382 125.786407,63.135765 
z"/>
<path fill="#FDFDFD" opacity="1.000000" stroke="none" 
	d="
M84.411148,69.764435 
	C84.317917,69.891563 84.071754,69.470757 84.036484,69.229431 
	C84.374428,69.099098 84.542145,69.315498 84.411148,69.764435 
z"/>
<path fill="#F1B18D" opacity="1.000000" stroke="none" 
	d="
M46.875359,91.087997 
	C46.066170,91.177597 45.256985,91.267189 44.064888,91.216064 
	C45.153633,84.359833 47.090515,77.919838 54.249126,73.697731 
	C58.363678,81.121811 65.335022,84.032845 73.165932,85.729553 
	C74.671410,86.055740 75.823273,88.013969 76.684517,89.617523 
	C74.516357,90.330688 72.801956,90.645630 70.702072,90.970222 
	C68.169014,92.015007 66.021439,93.050133 63.873859,94.085258 
	C63.113106,94.924843 62.352356,95.764427 61.318108,96.445831 
	C60.435970,92.859108 58.442017,91.020309 54.825188,90.696632 
	C54.428272,90.297997 54.118473,90.146629 53.627411,90.009872 
	C53.446140,90.024483 53.083019,90.045189 52.944221,89.732262 
	C51.882610,89.611252 50.959797,89.803169 49.717373,89.986877 
	C48.907181,90.315254 48.416599,90.651833 47.662483,91.004105 
	C47.224415,91.042534 47.049885,91.065269 46.875359,91.087997 
z"/>
<path fill="#CCB49F" opacity="1.000000" stroke="none" 
	d="
M64.041328,94.341576 
	C66.021439,93.050133 68.169014,92.015007 71.104179,90.979309 
	C73.921379,90.765060 75.950989,90.551392 77.980598,90.337723 
	C78.456932,90.811020 78.933266,91.284317 79.677536,91.861359 
	C80.761841,93.711250 81.578194,95.457390 82.683380,97.466309 
	C80.806305,100.071465 79.049042,103.608833 76.392731,104.517189 
	C70.106102,106.667007 67.293961,104.342102 65.323524,97.143379 
	C65.081566,96.259407 64.586548,95.444702 64.041328,94.341576 
z"/>
<path fill="#C0886C" opacity="1.000000" stroke="none" 
	d="
M77.753494,90.231110 
	C75.950989,90.551392 73.921379,90.765060 71.489655,90.969650 
	C72.801956,90.645630 74.516357,90.330688 76.636429,90.004501 
	C77.203529,90.037010 77.364967,90.080757 77.753494,90.231110 
z"/>
<path fill="#343546" opacity="1.000000" stroke="none" 
	d="
M169.799988,149.162979 
	C169.865295,149.535873 169.930588,149.908768 170.027008,150.563934 
	C161.778824,150.974152 153.499771,151.186493 145.220123,151.211945 
	C129.455505,151.260391 113.690567,151.202087 97.385910,150.930481 
	C96.572342,150.742004 96.298630,150.811172 96.024918,150.880341 
	C95.785225,149.672302 95.545532,148.464279 95.942139,147.222687 
	C97.367630,146.317749 98.819695,145.462753 98.841690,144.572418 
	C99.025642,137.125732 98.823853,129.669891 98.986748,122.222237 
	C99.112396,116.477982 99.596329,110.741562 100.301819,105.003220 
	C101.440315,104.990669 102.197945,104.976562 103.158882,105.227463 
	C104.921982,106.625702 106.481781,107.758926 108.406769,108.935455 
	C110.171333,109.322754 111.570724,109.666748 112.994583,110.410568 
	C113.717178,111.848679 114.210251,113.480286 115.154427,113.806595 
	C117.390549,114.579391 119.840843,114.732483 122.351921,115.351532 
	C123.002861,115.717949 123.506447,115.868935 124.009750,116.389465 
	C124.928947,117.997299 125.621544,119.542358 126.807922,120.419724 
	C131.461395,123.861145 136.201096,127.197723 141.037933,130.376709 
	C148.608643,135.352493 156.284149,140.168839 163.986893,145.376038 
	C164.139633,146.131271 164.220734,146.563202 164.365005,147.259216 
	C164.945023,147.595840 165.461884,147.668381 166.268585,147.783005 
	C166.948593,147.813660 167.338776,147.802246 167.912415,148.057251 
	C168.663910,148.603455 169.231964,148.883209 169.799988,149.162979 
M116.680954,139.465469 
	C117.149208,140.306503 117.599205,141.867279 118.088486,141.879684 
	C124.534149,142.043213 130.985352,141.988571 137.386826,141.988571 
	C138.504227,138.173569 137.764709,135.325180 134.183594,135.180115 
	C129.001068,134.970184 123.769005,135.576340 118.589249,136.127365 
	C117.779343,136.213516 117.134392,137.850296 116.680954,139.465469 
z"/>
<path fill="#C7C8CA" opacity="1.000000" stroke="none" 
	d="
M95.096169,165.032196 
	C95.073509,163.947083 95.050842,162.861954 95.017174,161.368637 
	C95.017303,159.241196 95.028450,157.521973 95.520554,155.389893 
	C116.971184,154.981430 137.940872,154.986130 158.910553,154.990005 
	C166.802811,154.991470 168.756531,156.483292 171.512817,165.032196 
	C145.924866,165.032196 120.510521,165.032196 95.096169,165.032196 
z"/>
<path fill="#AAABAF" opacity="1.000000" stroke="none" 
	d="
M95.073151,165.365967 
	C120.510521,165.032196 145.924866,165.032196 171.512817,165.032196 
	C168.756531,156.483292 166.802811,154.991470 158.910553,154.990005 
	C137.940872,154.986130 116.971184,154.981430 95.542145,154.959549 
	C96.365128,154.294617 97.644501,153.089676 98.930252,153.082825 
	C120.706215,152.966965 142.483780,152.921997 164.258133,153.142487 
	C166.076080,153.160889 168.355865,154.811676 169.576279,156.366974 
	C171.837921,159.249176 173.474762,162.621643 176.103790,167.012466 
	C148.428940,167.012466 122.249199,167.012466 95.618408,167.022797 
	C95.128281,166.588669 95.089211,166.144196 95.073151,165.365967 
z"/>
<path fill="#4FA8B3" opacity="1.000000" stroke="none" 
	d="
M93.735352,144.312424 
	C92.519684,143.064163 91.304001,141.815918 89.948776,139.804688 
	C89.876678,124.742973 89.944138,110.444221 90.381004,96.123344 
	C91.735184,96.150162 92.719948,96.199097 93.746643,96.643173 
	C93.859787,98.371002 93.930992,99.703697 94.016479,101.407372 
	C94.326569,103.462784 94.622383,105.147209 94.706230,106.931793 
	C94.177704,107.220413 94.071480,107.491325 94.112366,108.202744 
	C94.026688,109.042374 94.004234,109.523933 93.956985,110.355179 
	C94.212898,111.527405 94.493622,112.349953 94.934189,113.367012 
	C94.758194,116.699532 94.231522,119.831085 94.125221,122.976837 
	C93.885002,130.084976 93.852402,137.200119 93.735352,144.312424 
z"/>
<path fill="#797B83" opacity="1.000000" stroke="none" 
	d="
M93.912888,144.535690 
	C93.852402,137.200119 93.885002,130.084976 94.125221,122.976837 
	C94.231522,119.831085 94.758194,116.699532 95.246635,113.248726 
	C95.932617,112.631401 96.465996,112.326881 96.905045,111.768646 
	C96.534363,111.052223 96.258018,110.589516 96.154007,109.941544 
	C95.825287,109.127014 95.324242,108.497757 95.128159,107.836372 
	C95.795921,107.707962 96.158737,107.611679 96.844551,107.429688 
	C95.989006,107.164078 95.453598,106.997856 94.918198,106.831642 
	C94.622383,105.147209 94.326569,103.462784 94.354050,101.372452 
	C96.440109,101.299294 98.202888,101.632034 99.792961,102.064445 
	C99.382698,102.318314 99.241425,102.535210 99.146774,103.125900 
	C99.371719,103.958549 99.646339,104.480103 99.920959,105.001663 
	C99.596329,110.741562 99.112396,116.477982 98.986748,122.222237 
	C98.823853,129.669891 99.025642,137.125732 98.841690,144.572418 
	C98.819695,145.462753 97.367630,146.317749 96.237488,147.038361 
	C95.294495,146.178055 94.692451,145.468506 93.912888,144.535690 
z"/>
<path fill="#39404B" opacity="1.000000" stroke="none" 
	d="
M90.011589,96.145462 
	C89.944138,110.444221 89.876678,124.742973 89.797699,139.513397 
	C88.759819,139.748489 87.733475,139.511917 86.404709,139.126373 
	C86.097122,128.311920 86.091957,117.646461 85.985977,106.532715 
	C85.885170,106.084419 86.123100,106.230019 86.397400,105.956146 
	C86.651840,105.359535 86.631966,105.036804 86.612099,104.714066 
	C86.714165,102.140724 86.816231,99.567390 86.921036,96.653152 
	C87.629654,95.600998 88.335526,94.889748 89.467224,94.522552 
	C89.932564,95.292900 89.972076,95.719177 90.011589,96.145462 
z"/>
<path fill="#A6A7AB" opacity="1.000000" stroke="none" 
	d="
M118.095825,172.898254 
	C120.843437,165.012192 127.560631,168.913864 132.648560,168.029709 
	C135.952713,167.455551 138.125076,168.812347 138.442749,172.571609 
	C131.371094,172.939697 124.733459,172.918976 118.095825,172.898254 
z"/>
<path fill="#DADADB" opacity="1.000000" stroke="none" 
	d="
M117.869110,173.024200 
	C124.733459,172.918976 131.371094,172.939697 138.470184,172.944153 
	C139.249557,173.290344 139.567459,173.652802 139.934937,174.263367 
	C132.633575,174.574875 125.282623,174.638290 117.472473,174.606583 
	C117.222969,174.057678 117.432678,173.603897 117.869110,173.024200 
z"/>
<path fill="#2E2B37" opacity="1.000000" stroke="none" 
	d="
M96.260384,150.990326 
	C96.298630,150.811172 96.572342,150.742004 96.925690,150.835083 
	C96.835495,151.031677 96.665672,151.065994 96.260384,150.990326 
z"/>
<path fill="#DADADB" opacity="1.000000" stroke="none" 
	d="
M95.357651,173.782547 
	C95.231819,173.865158 95.100060,173.454529 95.116516,173.239822 
	C95.495178,173.154846 95.612015,173.379791 95.357651,173.782547 
z"/>
<path fill="#CBB5A0" opacity="1.000000" stroke="none" 
	d="
M53.083019,90.045189 
	C53.083019,90.045189 53.446140,90.024483 53.745049,90.238068 
	C54.333408,90.615738 54.622856,90.779816 54.912304,90.943893 
	C58.442017,91.020309 60.435970,92.859108 61.088089,96.663818 
	C59.681061,99.988014 59.221649,103.567459 55.118515,104.589622 
	C49.691921,105.941475 46.691998,104.411491 44.086742,98.181686 
	C44.906681,95.839966 45.840717,93.805031 46.825054,91.429047 
	C47.049885,91.065269 47.224415,91.042534 48.031540,91.011688 
	C49.807915,90.727974 50.951694,90.452354 52.340580,90.130493 
	C52.585690,90.084259 53.083019,90.045189 53.083019,90.045189 
z"/>
<path fill="#FFFCFB" opacity="1.000000" stroke="none" 
	d="
M62.992477,111.889420 
	C65.075371,111.889297 66.720566,111.889297 68.596252,111.889297 
	C68.616264,115.953812 65.830597,117.563438 63.227898,117.434006 
	C60.973831,117.321907 58.822819,115.137512 56.626255,113.869080 
	C56.872780,113.209236 57.119305,112.549393 57.365829,111.889549 
	C59.095474,111.889549 60.825123,111.889549 62.992477,111.889420 
z"/>
<path fill="#D19A7B" opacity="1.000000" stroke="none" 
	d="
M65.993576,125.990456 
	C66.431137,125.855537 66.878662,125.733650 67.326187,125.611748 
	C67.054260,125.744980 66.782333,125.878212 66.268707,126.019409 
	C66.026993,126.027374 66.003548,126.003487 65.993576,125.990456 
z"/>
<path fill="#6D6C73" opacity="1.000000" stroke="none" 
	d="
M86.445343,104.904892 
	C86.631966,105.036804 86.651840,105.359535 86.510391,105.874374 
	C86.325577,105.742889 86.302078,105.419296 86.445343,104.904892 
z"/>
<path fill="#171522" opacity="1.000000" stroke="none" 
	d="
M90.381004,96.123344 
	C89.972076,95.719177 89.932564,95.292900 89.829544,94.555054 
	C115.426003,94.165535 141.086151,94.119919 166.745712,93.969620 
	C170.035934,93.950340 170.017502,95.881104 170.011230,98.203262 
	C169.966202,114.868629 169.959686,131.534088 169.870483,148.681244 
	C169.231964,148.883209 168.663910,148.603455 167.969604,148.071167 
	C167.843338,147.818649 167.843079,147.935883 168.027954,147.883362 
	C168.306961,147.747421 168.492844,147.608597 168.481094,147.589142 
	C168.358978,147.386887 168.205048,147.203812 167.991333,146.550049 
	C167.869293,130.052277 167.815857,114.019890 167.828583,97.705475 
	C167.577698,97.070389 167.260666,96.717316 166.613190,96.291290 
	C165.606171,96.212662 164.929565,96.206993 163.769333,96.145912 
	C140.092026,96.143013 116.898369,96.195518 93.704712,96.248032 
	C92.719948,96.199097 91.735184,96.150162 90.381004,96.123344 
z"/>
<path fill="#FDFDFD" opacity="1.000000" stroke="none" 
	d="
M41.110344,63.597080 
	C32.301392,63.967770 23.615797,63.979427 14.468773,63.906433 
	C14.852966,63.127426 15.698589,62.433060 16.494526,61.779499 
	C15.193947,60.184547 13.760948,58.427212 12.176195,56.354702 
	C12.024440,56.039532 11.999288,56.005470 12.327909,56.036163 
	C15.571163,57.080490 14.974890,54.962360 15.020452,53.416752 
	C15.434875,52.778694 15.996238,52.191257 16.236704,51.493267 
	C17.018906,49.222794 17.043238,45.831539 18.575508,44.923084 
	C20.080978,44.030525 23.072029,45.643673 25.784620,46.285755 
	C26.503918,47.762592 26.849758,49.110916 27.171856,50.366661 
	C31.471392,47.795589 33.771137,48.361813 37.420433,52.371330 
	C38.746716,53.828526 40.939743,54.496841 42.913982,55.841476 
	C42.471668,58.517921 41.852688,60.877987 41.110344,63.597080 
M18.488144,60.644024 
	C19.424475,61.311405 20.360804,61.978786 21.297132,62.646168 
	C21.512514,62.212688 21.727896,61.779205 21.943277,61.345726 
	C20.949150,60.974449 19.955021,60.603172 18.488144,60.644024 
z"/>
<path fill="#F4F4F4" opacity="1.000000" stroke="none" 
	d="
M14.693397,53.306580 
	C14.974890,54.962360 15.571163,57.080490 12.347624,56.042923 
	C12.814591,55.078129 13.590466,54.137268 14.693397,53.306580 
z"/>
<path fill="#121325" opacity="1.000000" stroke="none" 
	d="
M31.242247,225.093552 
	C31.242247,225.093552 31.128338,225.513550 31.172531,225.726624 
	C30.822237,225.687851 30.427746,225.435989 29.829523,224.889740 
	C29.625792,224.595352 29.687943,224.596268 30.083822,224.748062 
	C30.733883,224.964417 30.988064,225.028992 31.242247,225.093552 
z"/>
<path fill="#080714" opacity="1.000000" stroke="none" 
	d="
M22.295647,226.857269 
	C22.008627,226.786850 22.009302,226.694962 22.004745,226.700775 
	C22.342461,226.268311 22.684734,225.830032 23.027008,225.391754 
	C23.310099,225.666672 23.593189,225.941589 23.819361,226.606995 
	C23.369184,226.974213 22.975927,226.950958 22.295647,226.857269 
z"/>
<path fill="#171522" opacity="1.000000" stroke="none" 
	d="
M31.486996,224.982574 
	C30.988064,225.028992 30.733883,224.964417 30.114882,224.746979 
	C30.296604,224.369553 30.843145,224.145004 31.703447,223.901428 
	C31.922054,224.212143 31.826900,224.541870 31.486996,224.982574 
z"/>
<path fill="#C0886C" opacity="1.000000" stroke="none" 
	d="
M52.095470,90.176735 
	C50.951694,90.452354 49.807915,90.727974 48.295074,90.996002 
	C48.416599,90.651833 48.907181,90.315254 50.063522,89.973129 
	C51.184677,90.037300 51.640072,90.107018 52.095470,90.176735 
z"/>
<path fill="#6B3325" opacity="1.000000" stroke="none" 
	d="
M52.340580,90.130493 
	C51.640072,90.107018 51.184677,90.037300 50.383133,89.981339 
	C50.959797,89.803169 51.882610,89.611252 52.944221,89.732262 
	C53.083019,90.045189 52.585690,90.084259 52.340580,90.130493 
z"/>
<path fill="#C0886C" opacity="1.000000" stroke="none" 
	d="
M54.825188,90.696632 
	C54.622856,90.779816 54.333408,90.615738 53.926319,90.223457 
	C54.118473,90.146629 54.428272,90.297997 54.825188,90.696632 
z"/>
<path fill="#0E1025" opacity="1.000000" stroke="none" 
	d="
M108.041580,108.892151 
	C106.481781,107.758926 104.921982,106.625702 103.176834,104.914619 
	C102.931946,103.922928 102.872406,103.509087 103.218018,103.067871 
	C105.082344,102.678780 106.541512,102.317070 108.092102,101.560463 
	C109.521858,100.783310 110.859055,100.073151 112.198708,100.068481 
	C129.417450,100.008423 146.636536,100.049088 163.928375,100.523834 
	C163.972549,115.673195 163.943909,130.362961 163.915268,145.052719 
	C156.284149,140.168839 148.608643,135.352493 141.037933,130.376709 
	C136.201096,127.197723 131.461395,123.861145 126.807922,120.419724 
	C125.621544,119.542358 124.928947,117.997299 124.462372,116.373596 
	C129.368942,115.708702 134.253906,117.142181 138.359848,112.634972 
	C136.825882,112.291069 135.907776,112.085236 134.995605,111.520477 
	C135.005524,110.443642 135.009506,109.725723 135.323929,108.959244 
	C135.832031,108.688225 136.236481,108.333160 136.192993,108.265327 
	C135.952347,107.890022 135.604050,107.298576 135.290039,107.297005 
	C126.531395,107.253235 117.772232,107.254105 109.014236,107.347778 
	C108.684555,107.351311 108.365555,108.354698 108.041580,108.892151 
z"/>
<path fill="#00BBC7" opacity="1.000000" stroke="none" 
	d="
M163.986893,145.376038 
	C163.943909,130.362961 163.972549,115.673195 163.999878,100.140305 
	C164.083374,98.265228 164.168167,97.233276 164.252975,96.201324 
	C164.929565,96.206993 165.606171,96.212662 166.637115,96.528061 
	C167.248459,97.221031 167.505447,97.604271 167.762421,97.987503 
	C167.815857,114.019890 167.869293,130.052277 167.904663,146.772522 
	C167.886597,147.460373 167.843079,147.935883 167.843079,147.935883 
	C167.843079,147.935883 167.843338,147.818649 167.786133,147.804733 
	C167.338776,147.802246 166.948593,147.813660 166.111069,147.600708 
	C165.209763,147.249252 164.755798,147.122192 164.301849,146.995117 
	C164.220734,146.563202 164.139633,146.131271 163.986893,145.376038 
z"/>
<path fill="#444555" opacity="1.000000" stroke="none" 
	d="
M116.547058,139.117767 
	C117.134392,137.850296 117.779343,136.213516 118.589249,136.127365 
	C123.769005,135.576340 129.001068,134.970184 134.183594,135.180115 
	C137.764709,135.325180 138.504227,138.173569 137.386826,141.988571 
	C130.985352,141.988571 124.534149,142.043213 118.088486,141.879684 
	C117.599205,141.867279 117.149208,140.306503 116.547058,139.117767 
M125.970390,139.179764 
	C125.559952,139.272385 125.149521,139.364990 124.739082,139.457611 
	C124.831123,139.575684 124.937370,139.803421 125.012848,139.793640 
	C125.429398,139.739655 125.838440,139.627716 125.970390,139.179764 
z"/>
<path fill="#05071D" opacity="1.000000" stroke="none" 
	d="
M135.013474,109.007805 
	C135.009506,109.725723 135.005524,110.443642 134.539032,111.573746 
	C131.611511,111.997269 129.062225,111.628426 126.710381,112.149971 
	C125.068451,112.514107 123.696892,114.097382 122.204559,115.136093 
	C119.840843,114.732483 117.390549,114.579391 115.154427,113.806595 
	C114.210251,113.480286 113.717178,111.848679 113.366318,110.411667 
	C114.208061,110.034081 114.702553,110.055214 115.274635,110.380135 
	C116.189301,110.473160 117.026367,110.262390 118.254707,110.037308 
	C124.101814,109.684601 129.557648,109.346199 135.013474,109.007805 
z"/>
<path fill="#080714" opacity="1.000000" stroke="none" 
	d="
M135.323929,108.959244 
	C129.557648,109.346199 124.101814,109.684601 117.921463,110.007935 
	C116.530312,110.020691 115.863678,110.048515 115.197037,110.076347 
	C114.702553,110.055214 114.208061,110.034081 113.341843,110.011848 
	C111.570724,109.666748 110.171333,109.322754 108.406769,108.935455 
	C108.365555,108.354698 108.684555,107.351311 109.014236,107.347778 
	C117.772232,107.254105 126.531395,107.253235 135.290039,107.297005 
	C135.604050,107.298576 135.952347,107.890022 136.192993,108.265327 
	C136.236481,108.333160 135.832031,108.688225 135.323929,108.959244 
z"/>
<path fill="#83838B" opacity="1.000000" stroke="none" 
	d="
M122.351921,115.351532 
	C123.696892,114.097382 125.068451,112.514107 126.710381,112.149971 
	C129.062225,111.628426 131.611511,111.997269 134.533081,111.932671 
	C135.907776,112.085236 136.825882,112.291069 138.359848,112.634972 
	C134.253906,117.142181 129.368942,115.708702 124.462639,116.004044 
	C123.506447,115.868935 123.002861,115.717949 122.351921,115.351532 
z"/>
<path fill="#3E6C79" opacity="1.000000" stroke="none" 
	d="
M102.812874,103.095261 
	C102.872406,103.509087 102.931946,103.922928 102.973526,104.649612 
	C102.197945,104.976562 101.440315,104.990669 100.301819,105.003220 
	C99.646339,104.480103 99.371719,103.958549 99.507980,103.147003 
	C100.883530,102.936424 101.848206,103.015839 102.812874,103.095261 
z"/>
<path fill="#05A7B3" opacity="1.000000" stroke="none" 
	d="
M164.365021,147.259216 
	C164.755798,147.122192 165.209763,147.249252 165.821228,147.558624 
	C165.461884,147.668381 164.945023,147.595840 164.365021,147.259216 
z"/>
<path fill="#373C54" opacity="1.000000" stroke="none" 
	d="
M163.769333,96.145912 
	C164.168167,97.233276 164.083374,98.265228 163.927063,99.680710 
	C146.636536,100.049088 129.417450,100.008423 112.198708,100.068481 
	C110.859055,100.073151 109.521858,100.783310 107.646812,101.580032 
	C104.728622,101.984596 102.347137,101.974686 99.965660,101.964775 
	C98.202888,101.632034 96.440109,101.299294 94.339767,101.001472 
	C93.930992,99.703697 93.859787,98.371002 93.746643,96.643173 
	C116.898369,96.195518 140.092026,96.143013 163.769333,96.145912 
z"/>
<path fill="#494A59" opacity="1.000000" stroke="none" 
	d="
M96.999374,112.022354 
	C96.465996,112.326881 95.932617,112.631401 95.086792,113.054207 
	C94.493622,112.349953 94.212898,111.527405 94.248260,110.367554 
	C94.758224,110.042816 94.952118,110.055405 95.107857,110.395164 
	C95.712929,111.155678 96.356155,111.589020 96.999374,112.022354 
z"/>
<path fill="#444555" opacity="1.000000" stroke="none" 
	d="
M95.146004,110.067993 
	C94.952118,110.055405 94.758224,110.042816 94.273064,110.017868 
	C94.004234,109.523933 94.026688,109.042374 94.274696,108.196678 
	C94.500259,107.832542 94.823196,107.868500 94.823196,107.868500 
	C95.324242,108.497757 95.825287,109.127014 95.946030,109.912552 
	C95.565735,110.068817 95.146004,110.067993 95.146004,110.067993 
z"/>
<path fill="#121325" opacity="1.000000" stroke="none" 
	d="
M95.128151,107.836372 
	C94.823196,107.868500 94.500259,107.832542 94.337936,107.838608 
	C94.071480,107.491325 94.177704,107.220413 94.706223,106.931793 
	C95.453598,106.997856 95.989006,107.164078 96.844551,107.429688 
	C96.158737,107.611679 95.795921,107.707962 95.128151,107.836372 
z"/>
<path fill="#00051E" opacity="1.000000" stroke="none" 
	d="
M99.792961,102.064445 
	C102.347137,101.974686 104.728622,101.984596 107.555389,101.974930 
	C106.541512,102.317070 105.082344,102.678780 103.218018,103.067871 
	C101.848206,103.015839 100.883530,102.936424 99.557655,102.835907 
	C99.241425,102.535210 99.382698,102.318314 99.792961,102.064445 
z"/>
<path fill="#8F8F92" opacity="1.000000" stroke="none" 
	d="
M95.107857,110.395164 
	C95.146004,110.067993 95.565735,110.068817 95.773705,110.097809 
	C96.258018,110.589516 96.534363,111.052223 96.905045,111.768646 
	C96.356155,111.589020 95.712929,111.155678 95.107857,110.395164 
z"/>
<path fill="#05A7B3" opacity="1.000000" stroke="none" 
	d="
M167.828583,97.705482 
	C167.505447,97.604271 167.248459,97.221031 166.967560,96.601021 
	C167.260666,96.717316 167.577698,97.070389 167.828583,97.705482 
z"/>
<path fill="#170014" opacity="1.000000" stroke="none" 
	d="
M168.027954,147.883362 
	C167.843079,147.935883 167.886597,147.460373 167.973267,147.237900 
	C168.205048,147.203812 168.358978,147.386887 168.481094,147.589142 
	C168.492844,147.608597 168.306961,147.747421 168.027954,147.883362 
z"/>
<path fill="#F4F4F4" opacity="1.000000" stroke="none" 
	d="
M18.724518,60.437958 
	C19.955021,60.603172 20.949150,60.974449 21.943277,61.345726 
	C21.727896,61.779205 21.512514,62.212688 21.297132,62.646168 
	C20.360804,61.978786 19.424475,61.311405 18.724518,60.437958 
z"/>
<path fill="#343546" opacity="1.000000" stroke="none" 
	d="
M126.110229,139.357697 
	C125.838440,139.627716 125.429398,139.739655 125.012848,139.793640 
	C124.937370,139.803421 124.831123,139.575684 124.739082,139.457611 
	C125.149521,139.364990 125.559952,139.272385 126.110229,139.357697 
z"/>
<path fill="#B6B6B9" opacity="1.000000" stroke="none" 
	d="
M115.274635,110.380135 
	C115.863678,110.048515 116.530312,110.020691 117.530197,110.022247 
	C117.026367,110.262390 116.189301,110.473160 115.274635,110.380135 
z"/>
</svg>